<svg xmlns="http://www.w3.org/2000/svg" viewBox="0 0 288 288" width="288" height="288">
<rect x="24" y="24" width="240" height="240" fill="#d9b483" rx="4"/><line x1="48" y1="48" x2="240" y2="48" stroke="#8b6914" stroke-width="2"/><line x1="48" y1="96" x2="240" y2="96" stroke="#8b6914" stroke-width="2"/><line x1="48" y1="144" x2="240" y2="144" stroke="#8b6914" stroke-width="2"/><line x1="48" y1="192" x2="240" y2="192" stroke="#8b6914" stroke-width="2"/><line x1="48" y1="240" x2="240" y2="240" stroke="#8b6914" stroke-width="2"/><line x1="48" y1="48" x2="48" y2="240" stroke="#8b6914" stroke-width="2"/><line x1="96" y1="48" x2="96" y2="240" stroke="#8b6914" stroke-width="2"/><line x1="144" y1="48" x2="144" y2="240" stroke="#8b6914" stroke-width="2"/><line x1="192" y1="48" x2="192" y2="240" stroke="#8b6914" stroke-width="2"/><line x1="240" y1="48" x2="240" y2="240" stroke="#8b6914" stroke-width="2"/><line x1="48" y1="48" x2="96" y2="96" stroke="#8b6914" stroke-width="1.5"/><line x1="96" y1="48" x2="48" y2="96" stroke="#8b6914" stroke-width="1.5"/><line x1="144" y1="48" x2="192" y2="96" stroke="#8b6914" stroke-width="1.5"/><line x1="192" y1="48" x2="144" y2="96" stroke="#8b6914" stroke-width="1.5"/><line x1="96" y1="96" x2="144" y2="144" stroke="#8b6914" stroke-width="1.5"/><line x1="144" y1="96" x2="96" y2="144" stroke="#8b6914" stroke-width="1.5"/><line x1="192" y1="96" x2="240" y2="144" stroke="#8b6914" stroke-width="1.5"/><line x1="240" y1="96" x2="192" y2="144" stroke="#8b6914" stroke-width="1.5"/><line x1="48" y1="144" x2="96" y2="192" stroke="#8b6914" stroke-width="1.5"/><line x1="96" y1="144" x2="48" y2="192" stroke="#8b6914" stroke-width="1.5"/><line x1="144" y1="144" x2="192" y2="192" stroke="#8b6914" stroke-width="1.5"/><line x1="192" y1="144" x2="144" y2="192" stroke="#8b6914" stroke-width="1.5"/><line x1="96" y1="192" x2="144" y2="240" stroke="#8b6914" stroke-width="1.5"/><line x1="144" y1="192" x2="96" y2="240" stroke="#8b6914" stroke-width="1.5"/><line x1="192" y1="192" x2="240" y2="240" stroke="#8b6914" stroke-width="1.5"/><line x1="240" y1="192" x2="192" y2="240" stroke="#8b6914" stroke-width="1.5"/><circle cx="48" cy="48" r="3" fill="#8b6914"/><circle cx="48" cy="48" r="19.200000000000003" fill="transparent" class="board-cell" data-sq="a5"/><circle cx="96" cy="48" r="3" fill="#8b6914"/><circle cx="96" cy="48" r="19.200000000000003" fill="transparent" class="board-cell" data-sq="b5"/><circle cx="144" cy="48" r="3" fill="#8b6914"/><circle cx="144" cy="48" r="19.200000000000003" fill="transparent" class="board-cell" data-sq="c5"/><circle cx="192" cy="48" r="3" fill="#8b6914"/><circle cx="192" cy="48" r="19.200000000000003" fill="transparent" class="board-cell" data-sq="d5"/><circle cx="240" cy="48" r="3" fill="#8b6914"/><circle cx="240" cy="48" r="19.200000000000003" fill="transparent" class="board-cell" data-sq="e5"/><circle cx="48" cy="96" r="3" fill="#8b6914"/><circle cx="48" cy="96" r="19.200000000000003" fill="transparent" class="board-cell" data-sq="a4"/><circle cx="96" cy="96" r="3" fill="#8b6914"/><circle cx="96" cy="96" r="19.200000000000003" fill="transparent" class="board-cell" data-sq="b4"/><circle cx="144" cy="96" r="3" fill="#8b6914"/><circle cx="144" cy="96" r="19.200000000000003" fill="transparent" class="board-cell" data-sq="c4"/><circle cx="192" cy="96" r="3" fill="#8b6914"/><circle cx="192" cy="96" r="19.200000000000003" fill="transparent" class="board-cell" data-sq="d4"/><circle cx="240" cy="96" r="3" fill="#8b6914"/><circle cx="240" cy="96" r="19.200000000000003" fill="transparent" class="board-cell" data-sq="e4"/><circle cx="48" cy="144" r="3" fill="#8b6914"/><circle cx="48" cy="144" r="19.200000000000003" fill="transparent" class="board-cell" data-sq="a3"/><circle cx="96" cy="144" r="3" fill="#8b6914"/><circle cx="96" cy="144" r="19.200000000000003" fill="transparent" class="board-cell" data-sq="b3"/><circle cx="144" cy="144" r="3" fill="#8b6914"/><circle cx="144" cy="144" r="19.200000000000003" fill="transparent" class="board-cell" data-sq="c3"/><circle cx="192" cy="144" r="3" fill="#8b6914"/><circle cx="192" cy="144" r="19.200000000000003" fill="transparent" class="board-cell" data-sq="d3"/><circle cx="240" cy="144" r="3" fill="#8b6914"/><circle cx="240" cy="144" r="19.200000000000003" fill="transparent" class="board-cell" data-sq="e3"/><circle cx="48" cy="192" r="3" fill="#8b6914"/><circle cx="48" cy="192" r="19.200000000000003" fill="transparent" class="board-cell" data-sq="a2"/><circle cx="96" cy="192" r="3" fill="#8b6914"/><circle cx="96" cy="192" r="19.200000000000003" fill="transparent" class="board-cell" data-sq="b2"/><circle cx="144" cy="192" r="3" fill="#8b6914"/><circle cx="144" cy="192" r="19.200000000000003" fill="transparent" class="board-cell" data-sq="c2"/><circle cx="192" cy="192" r="3" fill="#8b6914"/><circle cx="192" cy="192" r="19.200000000000003" fill="transparent" class="board-cell" data-sq="d2"/><circle cx="240" cy="192" r="3" fill="#8b6914"/><circle cx="240" cy="192" r="19.200000000000003" fill="transparent" class="board-cell" data-sq="e2"/><circle cx="48" cy="240" r="3" fill="#8b6914"/><circle cx="48" cy="240" r="19.200000000000003" fill="transparent" class="board-cell" data-sq="a1"/><circle cx="96" cy="240" r="3" fill="#8b6914"/><circle cx="96" cy="240" r="19.200000000000003" fill="transparent" class="board-cell" data-sq="b1"/><circle cx="144" cy="240" r="3" fill="#8b6914"/><circle cx="144" cy="240" r="19.200000000000003" fill="transparent" class="board-cell" data-sq="c1"/><circle cx="192" cy="240" r="3" fill="#8b6914"/><circle cx="192" cy="240" r="19.200000000000003" fill="transparent" class="board-cell" data-sq="d1"/><circle cx="240" cy="240" r="3" fill="#8b6914"/><circle cx="240" cy="240" r="19.200000000000003" fill="transparent" class="board-cell" data-sq="e1"/>
<text x="48" y="279.6" text-anchor="middle" font-size="13" fill="#5c3a1e" font-family="monospace">a</text><text x="96" y="279.6" text-anchor="middle" font-size="13" fill="#5c3a1e" font-family="monospace">b</text><text x="144" y="279.6" text-anchor="middle" font-size="13" fill="#5c3a1e" font-family="monospace">c</text><text x="192" y="279.6" text-anchor="middle" font-size="13" fill="#5c3a1e" font-family="monospace">d</text><text x="240" y="279.6" text-anchor="middle" font-size="13" fill="#5c3a1e" font-family="monospace">e</text><text x="12" y="52.55" text-anchor="middle" font-size="13" fill="#5c3a1e" font-family="monospace">5</text><text x="12" y="100.55" text-anchor="middle" font-size="13" fill="#5c3a1e" font-family="monospace">4</text><text x="12" y="148.55" text-anchor="middle" font-size="13" fill="#5c3a1e" font-family="monospace">3</text><text x="12" y="196.55" text-anchor="middle" font-size="13" fill="#5c3a1e" font-family="monospace">2</text><text x="12" y="244.55" text-anchor="middle" font-size="13" fill="#5c3a1e" font-family="monospace">1</text>
</svg>