<svg xmlns="http://www.w3.org/2000/svg" viewBox="0 0 384 384" width="384" height="384">

<rect x="24" y="24" width="28" height="28" fill="#f0d9b5" data-sq="a12" class="board-cell"/><rect x="52" y="24" width="28" height="28" fill="#b58863" data-sq="b12" class="board-cell"/><rect x="80" y="24" width="28" height="28" fill="#f0d9b5" data-sq="c12" class="board-cell"/><rect x="108" y="24" width="28" height="28" fill="#b58863" data-sq="d12" class="board-cell"/><rect x="136" y="24" width="28" height="28" fill="#f0d9b5" data-sq="e12" class="board-cell"/><rect x="164" y="24" width="28" height="28" fill="#b58863" data-sq="f12" class="board-cell"/><rect x="192" y="24" width="28" height="28" fill="#f0d9b5" data-sq="g12" class="board-cell"/><rect x="220" y="24" width="28" height="28" fill="#b58863" data-sq="h12" class="board-cell"/><rect x="248" y="24" width="28" height="28" fill="#f0d9b5" data-sq="i12" class="board-cell"/><rect x="276" y="24" width="28" height="28" fill="#b58863" data-sq="j12" class="board-cell"/><rect x="304" y="24" width="28" height="28" fill="#f0d9b5" data-sq="k12" class="board-cell"/><rect x="332" y="24" width="28" height="28" fill="#b58863" data-sq="l12" class="board-cell"/><rect x="24" y="52" width="28" height="28" fill="#b58863" data-sq="a11" class="board-cell"/><rect x="52" y="52" width="28" height="28" fill="#f0d9b5" data-sq="b11" class="board-cell"/><rect x="80" y="52" width="28" height="28" fill="#b58863" data-sq="c11" class="board-cell"/><rect x="108" y="52" width="28" height="28" fill="#f0d9b5" data-sq="d11" class="board-cell"/><rect x="136" y="52" width="28" height="28" fill="#b58863" data-sq="e11" class="board-cell"/><rect x="164" y="52" width="28" height="28" fill="#f0d9b5" data-sq="f11" class="board-cell"/><rect x="192" y="52" width="28" height="28" fill="#b58863" data-sq="g11" class="board-cell"/><rect x="220" y="52" width="28" height="28" fill="#f0d9b5" data-sq="h11" class="board-cell"/><rect x="248" y="52" width="28" height="28" fill="#b58863" data-sq="i11" class="board-cell"/><rect x="276" y="52" width="28" height="28" fill="#f0d9b5" data-sq="j11" class="board-cell"/><rect x="304" y="52" width="28" height="28" fill="#b58863" data-sq="k11" class="board-cell"/><rect x="332" y="52" width="28" height="28" fill="#f0d9b5" data-sq="l11" class="board-cell"/><rect x="24" y="80" width="28" height="28" fill="#f0d9b5" data-sq="a10" class="board-cell"/><rect x="52" y="80" width="28" height="28" fill="#b58863" data-sq="b10" class="board-cell"/><rect x="80" y="80" width="28" height="28" fill="#f0d9b5" data-sq="c10" class="board-cell"/><rect x="108" y="80" width="28" height="28" fill="#b58863" data-sq="d10" class="board-cell"/><rect x="136" y="80" width="28" height="28" fill="#f0d9b5" data-sq="e10" class="board-cell"/><rect x="164" y="80" width="28" height="28" fill="#b58863" data-sq="f10" class="board-cell"/><rect x="192" y="80" width="28" height="28" fill="#f0d9b5" data-sq="g10" class="board-cell"/><rect x="220" y="80" width="28" height="28" fill="#b58863" data-sq="h10" class="board-cell"/><rect x="248" y="80" width="28" height="28" fill="#f0d9b5" data-sq="i10" class="board-cell"/><rect x="276" y="80" width="28" height="28" fill="#b58863" data-sq="j10" class="board-cell"/><rect x="304" y="80" width="28" height="28" fill="#f0d9b5" data-sq="k10" class="board-cell"/><rect x="332" y="80" width="28" height="28" fill="#b58863" data-sq="l10" class="board-cell"/><rect x="24" y="108" width="28" height="28" fill="#b58863" data-sq="a9" class="board-cell"/><rect x="52" y="108" width="28" height="28" fill="#f0d9b5" data-sq="b9" class="board-cell"/><rect x="80" y="108" width="28" height="28" fill="#b58863" data-sq="c9" class="board-cell"/><rect x="108" y="108" width="28" height="28" fill="#f0d9b5" data-sq="d9" class="board-cell"/><rect x="136" y="108" width="28" height="28" fill="#b58863" data-sq="e9" class="board-cell"/><rect x="164" y="108" width="28" height="28" fill="#f0d9b5" data-sq="f9" class="board-cell"/><rect x="192" y="108" width="28" height="28" fill="#b58863" data-sq="g9" class="board-cell"/><rect x="220" y="108" width="28" height="28" fill="#f0d9b5" data-sq="h9" class="board-cell"/><rect x="248" y="108" width="28" height="28" fill="#b58863" data-sq="i9" class="board-cell"/><rect x="276" y="108" width="28" height="28" fill="#f0d9b5" data-sq="j9" class="board-cell"/><rect x="304" y="108" width="28" height="28" fill="#b58863" data-sq="k9" class="board-cell"/><rect x="332" y="108" width="28" height="28" fill="#f0d9b5" data-sq="l9" class="board-cell"/><rect x="24" y="136" width="28" height="28" fill="#f0d9b5" data-sq="a8" class="board-cell"/><rect x="52" y="136" width="28" height="28" fill="#b58863" data-sq="b8" class="board-cell"/><rect x="80" y="136" width="28" height="28" fill="#f0d9b5" data-sq="c8" class="board-cell"/><rect x="108" y="136" width="28" height="28" fill="#b58863" data-sq="d8" class="board-cell"/><rect x="136" y="136" width="28" height="28" fill="#f0d9b5" data-sq="e8" class="board-cell"/><rect x="164" y="136" width="28" height="28" fill="#b58863" data-sq="f8" class="board-cell"/><rect x="192" y="136" width="28" height="28" fill="#f0d9b5" data-sq="g8" class="board-cell"/><rect x="220" y="136" width="28" height="28" fill="#b58863" data-sq="h8" class="board-cell"/><rect x="248" y="136" width="28" height="28" fill="#f0d9b5" data-sq="i8" class="board-cell"/><rect x="276" y="136" width="28" height="28" fill="#b58863" data-sq="j8" class="board-cell"/><rect x="304" y="136" width="28" height="28" fill="#f0d9b5" data-sq="k8" class="board-cell"/><rect x="332" y="136" width="28" height="28" fill="#b58863" data-sq="l8" class="board-cell"/><rect x="24" y="164" width="28" height="28" fill="#b58863" data-sq="a7" class="board-cell"/><rect x="52" y="164" width="28" height="28" fill="#f0d9b5" data-sq="b7" class="board-cell"/><rect x="80" y="164" width="28" height="28" fill="#b58863" data-sq="c7" class="board-cell"/><rect x="108" y="164" width="28" height="28" fill="#f0d9b5" data-sq="d7" class="board-cell"/><rect x="136" y="164" width="28" height="28" fill="#b58863" data-sq="e7" class="board-cell"/><rect x="164" y="164" width="28" height="28" fill="#f0d9b5" data-sq="f7" class="board-cell"/><rect x="192" y="164" width="28" height="28" fill="#b58863" data-sq="g7" class="board-cell"/><rect x="220" y="164" width="28" height="28" fill="#f0d9b5" data-sq="h7" class="board-cell"/><rect x="248" y="164" width="28" height="28" fill="#b58863" data-sq="i7" class="board-cell"/><rect x="276" y="164" width="28" height="28" fill="#f0d9b5" data-sq="j7" class="board-cell"/><rect x="304" y="164" width="28" height="28" fill="#b58863" data-sq="k7" class="board-cell"/><rect x="332" y="164" width="28" height="28" fill="#f0d9b5" data-sq="l7" class="board-cell"/><rect x="24" y="192" width="28" height="28" fill="#f0d9b5" data-sq="a6" class="board-cell"/><rect x="52" y="192" width="28" height="28" fill="#b58863" data-sq="b6" class="board-cell"/><rect x="80" y="192" width="28" height="28" fill="#f0d9b5" data-sq="c6" class="board-cell"/><rect x="108" y="192" width="28" height="28" fill="#b58863" data-sq="d6" class="board-cell"/><rect x="136" y="192" width="28" height="28" fill="#f0d9b5" data-sq="e6" class="board-cell"/><rect x="164" y="192" width="28" height="28" fill="#b58863" data-sq="f6" class="board-cell"/><rect x="192" y="192" width="28" height="28" fill="#f0d9b5" data-sq="g6" class="board-cell"/><rect x="220" y="192" width="28" height="28" fill="#b58863" data-sq="h6" class="board-cell"/><rect x="248" y="192" width="28" height="28" fill="#f0d9b5" data-sq="i6" class="board-cell"/><rect x="276" y="192" width="28" height="28" fill="#b58863" data-sq="j6" class="board-cell"/><rect x="304" y="192" width="28" height="28" fill="#f0d9b5" data-sq="k6" class="board-cell"/><rect x="332" y="192" width="28" height="28" fill="#b58863" data-sq="l6" class="board-cell"/><rect x="24" y="220" width="28" height="28" fill="#b58863" data-sq="a5" class="board-cell"/><rect x="52" y="220" width="28" height="28" fill="#f0d9b5" data-sq="b5" class="board-cell"/><rect x="80" y="220" width="28" height="28" fill="#b58863" data-sq="c5" class="board-cell"/><rect x="108" y="220" width="28" height="28" fill="#f0d9b5" data-sq="d5" class="board-cell"/><rect x="136" y="220" width="28" height="28" fill="#b58863" data-sq="e5" class="board-cell"/><rect x="164" y="220" width="28" height="28" fill="#f0d9b5" data-sq="f5" class="board-cell"/><rect x="192" y="220" width="28" height="28" fill="#b58863" data-sq="g5" class="board-cell"/><rect x="220" y="220" width="28" height="28" fill="#f0d9b5" data-sq="h5" class="board-cell"/><rect x="248" y="220" width="28" height="28" fill="#b58863" data-sq="i5" class="board-cell"/><rect x="276" y="220" width="28" height="28" fill="#f0d9b5" data-sq="j5" class="board-cell"/><rect x="304" y="220" width="28" height="28" fill="#b58863" data-sq="k5" class="board-cell"/><rect x="332" y="220" width="28" height="28" fill="#f0d9b5" data-sq="l5" class="board-cell"/><rect x="24" y="248" width="28" height="28" fill="#f0d9b5" data-sq="a4" class="board-cell"/><rect x="52" y="248" width="28" height="28" fill="#b58863" data-sq="b4" class="board-cell"/><rect x="80" y="248" width="28" height="28" fill="#f0d9b5" data-sq="c4" class="board-cell"/><rect x="108" y="248" width="28" height="28" fill="#b58863" data-sq="d4" class="board-cell"/><rect x="136" y="248" width="28" height="28" fill="#f0d9b5" data-sq="e4" class="board-cell"/><rect x="164" y="248" width="28" height="28" fill="#b58863" data-sq="f4" class="board-cell"/><rect x="192" y="248" width="28" height="28" fill="#f0d9b5" data-sq="g4" class="board-cell"/><rect x="220" y="248" width="28" height="28" fill="#b58863" data-sq="h4" class="board-cell"/><rect x="248" y="248" width="28" height="28" fill="#f0d9b5" data-sq="i4" class="board-cell"/><rect x="276" y="248" width="28" height="28" fill="#b58863" data-sq="j4" class="board-cell"/><rect x="304" y="248" width="28" height="28" fill="#f0d9b5" data-sq="k4" class="board-cell"/><rect x="332" y="248" width="28" height="28" fill="#b58863" data-sq="l4" class="board-cell"/><rect x="24" y="276" width="28" height="28" fill="#b58863" data-sq="a3" class="board-cell"/><rect x="52" y="276" width="28" height="28" fill="#f0d9b5" data-sq="b3" class="board-cell"/><rect x="80" y="276" width="28" height="28" fill="#b58863" data-sq="c3" class="board-cell"/><rect x="108" y="276" width="28" height="28" fill="#f0d9b5" data-sq="d3" class="board-cell"/><rect x="136" y="276" width="28" height="28" fill="#b58863" data-sq="e3" class="board-cell"/><rect x="164" y="276" width="28" height="28" fill="#f0d9b5" data-sq="f3" class="board-cell"/><rect x="192" y="276" width="28" height="28" fill="#b58863" data-sq="g3" class="board-cell"/><rect x="220" y="276" width="28" height="28" fill="#f0d9b5" data-sq="h3" class="board-cell"/><rect x="248" y="276" width="28" height="28" fill="#b58863" data-sq="i3" class="board-cell"/><rect x="276" y="276" width="28" height="28" fill="#f0d9b5" data-sq="j3" class="board-cell"/><rect x="304" y="276" width="28" height="28" fill="#b58863" data-sq="k3" class="board-cell"/><rect x="332" y="276" width="28" height="28" fill="#f0d9b5" data-sq="l3" class="board-cell"/><rect x="24" y="304" width="28" height="28" fill="#f0d9b5" data-sq="a2" class="board-cell"/><rect x="52" y="304" width="28" height="28" fill="#b58863" data-sq="b2" class="board-cell"/><rect x="80" y="304" width="28" height="28" fill="#f0d9b5" data-sq="c2" class="board-cell"/><rect x="108" y="304" width="28" height="28" fill="#b58863" data-sq="d2" class="board-cell"/><rect x="136" y="304" width="28" height="28" fill="#f0d9b5" data-sq="e2" class="board-cell"/><rect x="164" y="304" width="28" height="28" fill="#b58863" data-sq="f2" class="board-cell"/><rect x="192" y="304" width="28" height="28" fill="#f0d9b5" data-sq="g2" class="board-cell"/><rect x="220" y="304" width="28" height="28" fill="#b58863" data-sq="h2" class="board-cell"/><rect x="248" y="304" width="28" height="28" fill="#f0d9b5" data-sq="i2" class="board-cell"/><rect x="276" y="304" width="28" height="28" fill="#b58863" data-sq="j2" class="board-cell"/><rect x="304" y="304" width="28" height="28" fill="#f0d9b5" data-sq="k2" class="board-cell"/><rect x="332" y="304" width="28" height="28" fill="#b58863" data-sq="l2" class="board-cell"/><rect x="24" y="332" width="28" height="28" fill="#b58863" data-sq="a1" class="board-cell"/><rect x="52" y="332" width="28" height="28" fill="#f0d9b5" data-sq="b1" class="board-cell"/><rect x="80" y="332" width="28" height="28" fill="#b58863" data-sq="c1" class="board-cell"/><rect x="108" y="332" width="28" height="28" fill="#f0d9b5" data-sq="d1" class="board-cell"/><rect x="136" y="332" width="28" height="28" fill="#b58863" data-sq="e1" class="board-cell"/><rect x="164" y="332" width="28" height="28" fill="#f0d9b5" data-sq="f1" class="board-cell"/><rect x="192" y="332" width="28" height="28" fill="#b58863" data-sq="g1" class="board-cell"/><rect x="220" y="332" width="28" height="28" fill="#f0d9b5" data-sq="h1" class="board-cell"/><rect x="248" y="332" width="28" height="28" fill="#b58863" data-sq="i1" class="board-cell"/><rect x="276" y="332" width="28" height="28" fill="#f0d9b5" data-sq="j1" class="board-cell"/><rect x="304" y="332" width="28" height="28" fill="#b58863" data-sq="k1" class="board-cell"/><rect x="332" y="332" width="28" height="28" fill="#f0d9b5" data-sq="l1" class="board-cell"/>
<g pointer-events="none"><image href="../pieces/sets/playstrategy-dameo-fabirovsky/bM.svg" x="52" y="24" width="28" height="28" pointer-events="none"/><image href="../pieces/sets/playstrategy-dameo-fabirovsky/bM.svg" x="108" y="24" width="28" height="28" pointer-events="none"/><image href="../pieces/sets/playstrategy-dameo-fabirovsky/bM.svg" x="164" y="24" width="28" height="28" pointer-events="none"/><image href="../pieces/sets/playstrategy-dameo-fabirovsky/bM.svg" x="220" y="24" width="28" height="28" pointer-events="none"/><image href="../pieces/sets/playstrategy-dameo-fabirovsky/bM.svg" x="276" y="24" width="28" height="28" pointer-events="none"/><image href="../pieces/sets/playstrategy-dameo-fabirovsky/bM.svg" x="332" y="24" width="28" height="28" pointer-events="none"/><image href="../pieces/sets/playstrategy-dameo-fabirovsky/bM.svg" x="24" y="52" width="28" height="28" pointer-events="none"/><image href="../pieces/sets/playstrategy-dameo-fabirovsky/bM.svg" x="80" y="52" width="28" height="28" pointer-events="none"/><image href="../pieces/sets/playstrategy-dameo-fabirovsky/bM.svg" x="136" y="52" width="28" height="28" pointer-events="none"/><image href="../pieces/sets/playstrategy-dameo-fabirovsky/bM.svg" x="192" y="52" width="28" height="28" pointer-events="none"/><image href="../pieces/sets/playstrategy-dameo-fabirovsky/bM.svg" x="248" y="52" width="28" height="28" pointer-events="none"/><image href="../pieces/sets/playstrategy-dameo-fabirovsky/bM.svg" x="304" y="52" width="28" height="28" pointer-events="none"/><image href="../pieces/sets/playstrategy-dameo-fabirovsky/bM.svg" x="52" y="80" width="28" height="28" pointer-events="none"/><image href="../pieces/sets/playstrategy-dameo-fabirovsky/bM.svg" x="108" y="80" width="28" height="28" pointer-events="none"/><image href="../pieces/sets/playstrategy-dameo-fabirovsky/bM.svg" x="164" y="80" width="28" height="28" pointer-events="none"/><image href="../pieces/sets/playstrategy-dameo-fabirovsky/bM.svg" x="220" y="80" width="28" height="28" pointer-events="none"/><image href="../pieces/sets/playstrategy-dameo-fabirovsky/bM.svg" x="276" y="80" width="28" height="28" pointer-events="none"/><image href="../pieces/sets/playstrategy-dameo-fabirovsky/bM.svg" x="332" y="80" width="28" height="28" pointer-events="none"/><image href="../pieces/sets/playstrategy-dameo-fabirovsky/bM.svg" x="24" y="108" width="28" height="28" pointer-events="none"/><image href="../pieces/sets/playstrategy-dameo-fabirovsky/bM.svg" x="80" y="108" width="28" height="28" pointer-events="none"/><image href="../pieces/sets/playstrategy-dameo-fabirovsky/bM.svg" x="136" y="108" width="28" height="28" pointer-events="none"/><image href="../pieces/sets/playstrategy-dameo-fabirovsky/bM.svg" x="192" y="108" width="28" height="28" pointer-events="none"/><image href="../pieces/sets/playstrategy-dameo-fabirovsky/bM.svg" x="248" y="108" width="28" height="28" pointer-events="none"/><image href="../pieces/sets/playstrategy-dameo-fabirovsky/bM.svg" x="304" y="108" width="28" height="28" pointer-events="none"/><image href="../pieces/sets/playstrategy-dameo-fabirovsky/bM.svg" x="52" y="136" width="28" height="28" pointer-events="none"/><image href="../pieces/sets/playstrategy-dameo-fabirovsky/bM.svg" x="108" y="136" width="28" height="28" pointer-events="none"/><image href="../pieces/sets/playstrategy-dameo-fabirovsky/bM.svg" x="164" y="136" width="28" height="28" pointer-events="none"/><image href="../pieces/sets/playstrategy-dameo-fabirovsky/bM.svg" x="220" y="136" width="28" height="28" pointer-events="none"/><image href="../pieces/sets/playstrategy-dameo-fabirovsky/bM.svg" x="276" y="136" width="28" height="28" pointer-events="none"/><image href="../pieces/sets/playstrategy-dameo-fabirovsky/bM.svg" x="332" y="136" width="28" height="28" pointer-events="none"/><image href="../pieces/sets/playstrategy-dameo-fabirovsky/wM.svg" x="24" y="220" width="28" height="28" pointer-events="none"/><image href="../pieces/sets/playstrategy-dameo-fabirovsky/wM.svg" x="80" y="220" width="28" height="28" pointer-events="none"/><image href="../pieces/sets/playstrategy-dameo-fabirovsky/wM.svg" x="136" y="220" width="28" height="28" pointer-events="none"/><image href="../pieces/sets/playstrategy-dameo-fabirovsky/wM.svg" x="192" y="220" width="28" height="28" pointer-events="none"/><image href="../pieces/sets/playstrategy-dameo-fabirovsky/wM.svg" x="248" y="220" width="28" height="28" pointer-events="none"/><image href="../pieces/sets/playstrategy-dameo-fabirovsky/wM.svg" x="304" y="220" width="28" height="28" pointer-events="none"/><image href="../pieces/sets/playstrategy-dameo-fabirovsky/wM.svg" x="52" y="248" width="28" height="28" pointer-events="none"/><image href="../pieces/sets/playstrategy-dameo-fabirovsky/wM.svg" x="108" y="248" width="28" height="28" pointer-events="none"/><image href="../pieces/sets/playstrategy-dameo-fabirovsky/wM.svg" x="164" y="248" width="28" height="28" pointer-events="none"/><image href="../pieces/sets/playstrategy-dameo-fabirovsky/wM.svg" x="220" y="248" width="28" height="28" pointer-events="none"/><image href="../pieces/sets/playstrategy-dameo-fabirovsky/wM.svg" x="276" y="248" width="28" height="28" pointer-events="none"/><image href="../pieces/sets/playstrategy-dameo-fabirovsky/wM.svg" x="332" y="248" width="28" height="28" pointer-events="none"/><image href="../pieces/sets/playstrategy-dameo-fabirovsky/wM.svg" x="24" y="276" width="28" height="28" pointer-events="none"/><image href="../pieces/sets/playstrategy-dameo-fabirovsky/wM.svg" x="80" y="276" width="28" height="28" pointer-events="none"/><image href="../pieces/sets/playstrategy-dameo-fabirovsky/wM.svg" x="136" y="276" width="28" height="28" pointer-events="none"/><image href="../pieces/sets/playstrategy-dameo-fabirovsky/wM.svg" x="192" y="276" width="28" height="28" pointer-events="none"/><image href="../pieces/sets/playstrategy-dameo-fabirovsky/wM.svg" x="248" y="276" width="28" height="28" pointer-events="none"/><image href="../pieces/sets/playstrategy-dameo-fabirovsky/wM.svg" x="304" y="276" width="28" height="28" pointer-events="none"/><image href="../pieces/sets/playstrategy-dameo-fabirovsky/wM.svg" x="52" y="304" width="28" height="28" pointer-events="none"/><image href="../pieces/sets/playstrategy-dameo-fabirovsky/wM.svg" x="108" y="304" width="28" height="28" pointer-events="none"/><image href="../pieces/sets/playstrategy-dameo-fabirovsky/wM.svg" x="164" y="304" width="28" height="28" pointer-events="none"/><image href="../pieces/sets/playstrategy-dameo-fabirovsky/wM.svg" x="220" y="304" width="28" height="28" pointer-events="none"/><image href="../pieces/sets/playstrategy-dameo-fabirovsky/wM.svg" x="276" y="304" width="28" height="28" pointer-events="none"/><image href="../pieces/sets/playstrategy-dameo-fabirovsky/wM.svg" x="332" y="304" width="28" height="28" pointer-events="none"/><image href="../pieces/sets/playstrategy-dameo-fabirovsky/wM.svg" x="24" y="332" width="28" height="28" pointer-events="none"/><image href="../pieces/sets/playstrategy-dameo-fabirovsky/wM.svg" x="80" y="332" width="28" height="28" pointer-events="none"/><image href="../pieces/sets/playstrategy-dameo-fabirovsky/wM.svg" x="136" y="332" width="28" height="28" pointer-events="none"/><image href="../pieces/sets/playstrategy-dameo-fabirovsky/wM.svg" x="192" y="332" width="28" height="28" pointer-events="none"/><image href="../pieces/sets/playstrategy-dameo-fabirovsky/wM.svg" x="248" y="332" width="28" height="28" pointer-events="none"/><image href="../pieces/sets/playstrategy-dameo-fabirovsky/wM.svg" x="304" y="332" width="28" height="28" pointer-events="none"/></g>
<text x="38" y="375.6" text-anchor="middle" font-size="13" fill="#5c3a1e" font-family="monospace">a</text><text x="66" y="375.6" text-anchor="middle" font-size="13" fill="#5c3a1e" font-family="monospace">b</text><text x="94" y="375.6" text-anchor="middle" font-size="13" fill="#5c3a1e" font-family="monospace">c</text><text x="122" y="375.6" text-anchor="middle" font-size="13" fill="#5c3a1e" font-family="monospace">d</text><text x="150" y="375.6" text-anchor="middle" font-size="13" fill="#5c3a1e" font-family="monospace">e</text><text x="178" y="375.6" text-anchor="middle" font-size="13" fill="#5c3a1e" font-family="monospace">f</text><text x="206" y="375.6" text-anchor="middle" font-size="13" fill="#5c3a1e" font-family="monospace">g</text><text x="234" y="375.6" text-anchor="middle" font-size="13" fill="#5c3a1e" font-family="monospace">h</text><text x="262" y="375.6" text-anchor="middle" font-size="13" fill="#5c3a1e" font-family="monospace">i</text><text x="290" y="375.6" text-anchor="middle" font-size="13" fill="#5c3a1e" font-family="monospace">j</text><text x="318" y="375.6" text-anchor="middle" font-size="13" fill="#5c3a1e" font-family="monospace">k</text><text x="346" y="375.6" text-anchor="middle" font-size="13" fill="#5c3a1e" font-family="monospace">l</text><text x="12" y="42.55" text-anchor="middle" font-size="13" fill="#5c3a1e" font-family="monospace">12</text><text x="12" y="70.55" text-anchor="middle" font-size="13" fill="#5c3a1e" font-family="monospace">11</text><text x="12" y="98.55" text-anchor="middle" font-size="13" fill="#5c3a1e" font-family="monospace">10</text><text x="12" y="126.55" text-anchor="middle" font-size="13" fill="#5c3a1e" font-family="monospace">9</text><text x="12" y="154.55" text-anchor="middle" font-size="13" fill="#5c3a1e" font-family="monospace">8</text><text x="12" y="182.55" text-anchor="middle" font-size="13" fill="#5c3a1e" font-family="monospace">7</text><text x="12" y="210.55" text-anchor="middle" font-size="13" fill="#5c3a1e" font-family="monospace">6</text><text x="12" y="238.55" text-anchor="middle" font-size="13" fill="#5c3a1e" font-family="monospace">5</text><text x="12" y="266.55" text-anchor="middle" font-size="13" fill="#5c3a1e" font-family="monospace">4</text><text x="12" y="294.55" text-anchor="middle" font-size="13" fill="#5c3a1e" font-family="monospace">3</text><text x="12" y="322.55" text-anchor="middle" font-size="13" fill="#5c3a1e" font-family="monospace">2</text><text x="12" y="350.55" text-anchor="middle" font-size="13" fill="#5c3a1e" font-family="monospace">1</text>
</svg>