<svg xmlns="http://www.w3.org/2000/svg" width="212" height="260" viewBox="0 0 212 260">
<title>Compact Skirmish (10×10)</title>
<rect x="2" y="2" width="19" height="19" fill="#f0b0b0" stroke="#c05050" stroke-width="2"/><rect x="23" y="2" width="19" height="19" fill="#f0b0b0" stroke="#c05050" stroke-width="2"/><rect x="44" y="2" width="19" height="19" fill="#f0b0b0" stroke="#c05050" stroke-width="2"/><rect x="65" y="2" width="19" height="19" fill="#f0b0b0" stroke="#c05050" stroke-width="2"/><rect x="86" y="2" width="19" height="19" fill="#f0b0b0" stroke="#c05050" stroke-width="2"/><rect x="107" y="2" width="19" height="19" fill="#f0b0b0" stroke="#c05050" stroke-width="2"/><rect x="128" y="2" width="19" height="19" fill="#f0b0b0" stroke="#c05050" stroke-width="2"/><rect x="149" y="2" width="19" height="19" fill="#f0b0b0" stroke="#c05050" stroke-width="2"/><rect x="170" y="2" width="19" height="19" fill="#f0b0b0" stroke="#c05050" stroke-width="2"/><rect x="191" y="2" width="19" height="19" fill="#f0b0b0" stroke="#c05050" stroke-width="2"/><rect x="2" y="23" width="19" height="19" fill="#f0b0b0" stroke="#c05050" stroke-width="2"/><rect x="23" y="23" width="19" height="19" fill="#f0b0b0" stroke="#c05050" stroke-width="2"/><rect x="44" y="23" width="19" height="19" fill="#f0b0b0" stroke="#c05050" stroke-width="2"/><rect x="65" y="23" width="19" height="19" fill="#f0b0b0" stroke="#c05050" stroke-width="2"/><rect x="86" y="23" width="19" height="19" fill="#f0b0b0" stroke="#c05050" stroke-width="2"/><rect x="107" y="23" width="19" height="19" fill="#f0b0b0" stroke="#c05050" stroke-width="2"/><rect x="128" y="23" width="19" height="19" fill="#f0b0b0" stroke="#c05050" stroke-width="2"/><rect x="149" y="23" width="19" height="19" fill="#f0b0b0" stroke="#c05050" stroke-width="2"/><rect x="170" y="23" width="19" height="19" fill="#f0b0b0" stroke="#c05050" stroke-width="2"/><rect x="191" y="23" width="19" height="19" fill="#f0b0b0" stroke="#c05050" stroke-width="2"/><rect x="2" y="44" width="19" height="19" fill="#d4c4a8" stroke="#2a2a2a" stroke-width="1"/><rect x="23" y="44" width="19" height="19" fill="#d4c4a8" stroke="#2a2a2a" stroke-width="1"/><rect x="44" y="44" width="19" height="19" fill="#d4c4a8" stroke="#2a2a2a" stroke-width="1"/><rect x="65" y="44" width="19" height="19" fill="#d4c4a8" stroke="#2a2a2a" stroke-width="1"/><rect x="86" y="44" width="19" height="19" fill="#d4c4a8" stroke="#2a2a2a" stroke-width="1"/><rect x="107" y="44" width="19" height="19" fill="#d4c4a8" stroke="#2a2a2a" stroke-width="1"/><rect x="128" y="44" width="19" height="19" fill="#d4c4a8" stroke="#2a2a2a" stroke-width="1"/><rect x="149" y="44" width="19" height="19" fill="#d4c4a8" stroke="#2a2a2a" stroke-width="1"/><rect x="170" y="44" width="19" height="19" fill="#d4c4a8" stroke="#2a2a2a" stroke-width="1"/><rect x="191" y="44" width="19" height="19" fill="#d4c4a8" stroke="#2a2a2a" stroke-width="1"/><rect x="2" y="65" width="19" height="19" fill="#d4c4a8" stroke="#2a2a2a" stroke-width="1"/><rect x="23" y="65" width="19" height="19" fill="#d4c4a8" stroke="#2a2a2a" stroke-width="1"/><rect x="44" y="65" width="19" height="19" fill="#d4c4a8" stroke="#2a2a2a" stroke-width="1"/><rect x="65" y="65" width="19" height="19" fill="#4a90c8" stroke="#2a2a2a" stroke-width="1" opacity="0.5"/><rect x="86" y="65" width="19" height="19" fill="#4a90c8" stroke="#2a2a2a" stroke-width="1" opacity="0.5"/><rect x="107" y="65" width="19" height="19" fill="#4a90c8" stroke="#2a2a2a" stroke-width="1" opacity="0.5"/><rect x="128" y="65" width="19" height="19" fill="#4a90c8" stroke="#2a2a2a" stroke-width="1" opacity="0.5"/><rect x="149" y="65" width="19" height="19" fill="#d4c4a8" stroke="#2a2a2a" stroke-width="1"/><rect x="170" y="65" width="19" height="19" fill="#d4c4a8" stroke="#2a2a2a" stroke-width="1"/><rect x="191" y="65" width="19" height="19" fill="#d4c4a8" stroke="#2a2a2a" stroke-width="1"/><rect x="2" y="86" width="19" height="19" fill="#d4c4a8" stroke="#2a2a2a" stroke-width="1"/><rect x="23" y="86" width="19" height="19" fill="#d4c4a8" stroke="#2a2a2a" stroke-width="1"/><rect x="44" y="86" width="19" height="19" fill="#d4c4a8" stroke="#2a2a2a" stroke-width="1"/><rect x="65" y="86" width="19" height="19" fill="#4a90c8" stroke="#2a2a2a" stroke-width="1" opacity="0.5"/><rect x="86" y="86" width="19" height="19" fill="#4a90c8" stroke="#2a2a2a" stroke-width="1" opacity="0.5"/><rect x="107" y="86" width="19" height="19" fill="#4a90c8" stroke="#2a2a2a" stroke-width="1" opacity="0.5"/><rect x="128" y="86" width="19" height="19" fill="#4a90c8" stroke="#2a2a2a" stroke-width="1" opacity="0.5"/><rect x="149" y="86" width="19" height="19" fill="#d4c4a8" stroke="#2a2a2a" stroke-width="1"/><rect x="170" y="86" width="19" height="19" fill="#d4c4a8" stroke="#2a2a2a" stroke-width="1"/><rect x="191" y="86" width="19" height="19" fill="#d4c4a8" stroke="#2a2a2a" stroke-width="1"/><rect x="2" y="107" width="19" height="19" fill="#d4c4a8" stroke="#2a2a2a" stroke-width="1"/><rect x="23" y="107" width="19" height="19" fill="#d4c4a8" stroke="#2a2a2a" stroke-width="1"/><rect x="44" y="107" width="19" height="19" fill="#d4c4a8" stroke="#2a2a2a" stroke-width="1"/><rect x="65" y="107" width="19" height="19" fill="#4a90c8" stroke="#2a2a2a" stroke-width="1" opacity="0.5"/><rect x="86" y="107" width="19" height="19" fill="#4a90c8" stroke="#2a2a2a" stroke-width="1" opacity="0.5"/><rect x="107" y="107" width="19" height="19" fill="#4a90c8" stroke="#2a2a2a" stroke-width="1" opacity="0.5"/><rect x="128" y="107" width="19" height="19" fill="#4a90c8" stroke="#2a2a2a" stroke-width="1" opacity="0.5"/><rect x="149" y="107" width="19" height="19" fill="#d4c4a8" stroke="#2a2a2a" stroke-width="1"/><rect x="170" y="107" width="19" height="19" fill="#d4c4a8" stroke="#2a2a2a" stroke-width="1"/><rect x="191" y="107" width="19" height="19" fill="#d4c4a8" stroke="#2a2a2a" stroke-width="1"/><rect x="2" y="128" width="19" height="19" fill="#d4c4a8" stroke="#2a2a2a" stroke-width="1"/><rect x="23" y="128" width="19" height="19" fill="#d4c4a8" stroke="#2a2a2a" stroke-width="1"/><rect x="44" y="128" width="19" height="19" fill="#d4c4a8" stroke="#2a2a2a" stroke-width="1"/><rect x="65" y="128" width="19" height="19" fill="#4a90c8" stroke="#2a2a2a" stroke-width="1" opacity="0.5"/><rect x="86" y="128" width="19" height="19" fill="#4a90c8" stroke="#2a2a2a" stroke-width="1" opacity="0.5"/><rect x="107" y="128" width="19" height="19" fill="#4a90c8" stroke="#2a2a2a" stroke-width="1" opacity="0.5"/><rect x="128" y="128" width="19" height="19" fill="#4a90c8" stroke="#2a2a2a" stroke-width="1" opacity="0.5"/><rect x="149" y="128" width="19" height="19" fill="#d4c4a8" stroke="#2a2a2a" stroke-width="1"/><rect x="170" y="128" width="19" height="19" fill="#d4c4a8" stroke="#2a2a2a" stroke-width="1"/><rect x="191" y="128" width="19" height="19" fill="#d4c4a8" stroke="#2a2a2a" stroke-width="1"/><rect x="2" y="149" width="19" height="19" fill="#d4c4a8" stroke="#2a2a2a" stroke-width="1"/><rect x="23" y="149" width="19" height="19" fill="#d4c4a8" stroke="#2a2a2a" stroke-width="1"/><rect x="44" y="149" width="19" height="19" fill="#d4c4a8" stroke="#2a2a2a" stroke-width="1"/><rect x="65" y="149" width="19" height="19" fill="#d4c4a8" stroke="#2a2a2a" stroke-width="1"/><rect x="86" y="149" width="19" height="19" fill="#d4c4a8" stroke="#2a2a2a" stroke-width="1"/><rect x="107" y="149" width="19" height="19" fill="#d4c4a8" stroke="#2a2a2a" stroke-width="1"/><rect x="128" y="149" width="19" height="19" fill="#d4c4a8" stroke="#2a2a2a" stroke-width="1"/><rect x="149" y="149" width="19" height="19" fill="#d4c4a8" stroke="#2a2a2a" stroke-width="1"/><rect x="170" y="149" width="19" height="19" fill="#d4c4a8" stroke="#2a2a2a" stroke-width="1"/><rect x="191" y="149" width="19" height="19" fill="#d4c4a8" stroke="#2a2a2a" stroke-width="1"/><rect x="2" y="170" width="19" height="19" fill="#f0d080" stroke="#c08820" stroke-width="2"/><rect x="23" y="170" width="19" height="19" fill="#f0d080" stroke="#c08820" stroke-width="2"/><rect x="44" y="170" width="19" height="19" fill="#f0d080" stroke="#c08820" stroke-width="2"/><rect x="65" y="170" width="19" height="19" fill="#f0d080" stroke="#c08820" stroke-width="2"/><rect x="86" y="170" width="19" height="19" fill="#f0d080" stroke="#c08820" stroke-width="2"/><rect x="107" y="170" width="19" height="19" fill="#f0d080" stroke="#c08820" stroke-width="2"/><rect x="128" y="170" width="19" height="19" fill="#f0d080" stroke="#c08820" stroke-width="2"/><rect x="149" y="170" width="19" height="19" fill="#f0d080" stroke="#c08820" stroke-width="2"/><rect x="170" y="170" width="19" height="19" fill="#f0d080" stroke="#c08820" stroke-width="2"/><rect x="191" y="170" width="19" height="19" fill="#f0d080" stroke="#c08820" stroke-width="2"/><rect x="2" y="191" width="19" height="19" fill="#f0d080" stroke="#c08820" stroke-width="2"/><rect x="23" y="191" width="19" height="19" fill="#f0d080" stroke="#c08820" stroke-width="2"/><rect x="44" y="191" width="19" height="19" fill="#f0d080" stroke="#c08820" stroke-width="2"/><rect x="65" y="191" width="19" height="19" fill="#f0d080" stroke="#c08820" stroke-width="2"/><rect x="86" y="191" width="19" height="19" fill="#f0d080" stroke="#c08820" stroke-width="2"/><rect x="107" y="191" width="19" height="19" fill="#f0d080" stroke="#c08820" stroke-width="2"/><rect x="128" y="191" width="19" height="19" fill="#f0d080" stroke="#c08820" stroke-width="2"/><rect x="149" y="191" width="19" height="19" fill="#f0d080" stroke="#c08820" stroke-width="2"/><rect x="170" y="191" width="19" height="19" fill="#f0d080" stroke="#c08820" stroke-width="2"/><rect x="191" y="191" width="19" height="19" fill="#f0d080" stroke="#c08820" stroke-width="2"/><rect x="21.900000000000006" y="224" width="10" height="10" fill="#d4c4a8" stroke="#2a2a2a" stroke-width="0.5"/><text x="35.900000000000006" y="232" font-family="sans-serif" font-size="10" fill="#333333">Floor</text><rect x="72.9" y="224" width="10" height="10" fill="#4a90c8" stroke="#2a2a2a" stroke-width="0.5" opacity="0.5"/><text x="86.9" y="232" font-family="sans-serif" font-size="10" fill="#333333">Water</text><rect x="123.9" y="224" width="10" height="10" fill="#f0d080" stroke="#c08820" stroke-width="1"/><text x="137.9" y="232" font-family="sans-serif" font-size="10" fill="#333333">P1 Deploy</text><rect x="72.9" y="240" width="10" height="10" fill="#f0b0b0" stroke="#c05050" stroke-width="1"/><text x="86.9" y="248" font-family="sans-serif" font-size="10" fill="#333333">P2 Deploy</text>
</svg>