<svg xmlns="http://www.w3.org/2000/svg" viewBox="0 0 460.25117766515297 409.2" width="460.25117766515297" height="409.2">
<g fill="none" stroke="#6b4226" stroke-width="14" stroke-linecap="round" stroke-linejoin="round"><line x1="39.60" y1="227.70" x2="19.59" y2="216.15"/><line x1="19.59" y1="216.15" x2="19.59" y2="193.05"/><line x1="19.59" y1="193.05" x2="39.60" y2="181.50"/><line x1="58.65" y1="260.70" x2="38.65" y2="249.15"/><line x1="38.65" y1="249.15" x2="38.65" y2="226.05"/><line x1="77.71" y1="293.70" x2="57.70" y2="282.15"/><line x1="57.70" y1="282.15" x2="57.70" y2="259.05"/><line x1="96.76" y1="326.70" x2="76.75" y2="315.15"/><line x1="76.75" y1="315.15" x2="76.75" y2="292.05"/><line x1="115.81" y1="359.70" x2="95.81" y2="348.15"/><line x1="95.81" y1="348.15" x2="95.81" y2="325.05"/><line x1="154.87" y1="381.15" x2="134.86" y2="392.70"/><line x1="134.86" y1="392.70" x2="114.86" y2="381.15"/><line x1="114.86" y1="381.15" x2="114.86" y2="358.05"/><line x1="38.65" y1="183.15" x2="38.65" y2="160.05"/><line x1="38.65" y1="160.05" x2="58.65" y2="148.50"/><line x1="192.97" y1="381.15" x2="172.97" y2="392.70"/><line x1="172.97" y1="392.70" x2="152.96" y2="381.15"/><line x1="57.70" y1="150.15" x2="57.70" y2="127.05"/><line x1="57.70" y1="127.05" x2="77.71" y2="115.50"/><line x1="231.08" y1="381.15" x2="211.07" y2="392.70"/><line x1="211.07" y1="392.70" x2="191.07" y2="381.15"/><line x1="76.75" y1="117.15" x2="76.75" y2="94.05"/><line x1="76.75" y1="94.05" x2="96.76" y2="82.50"/><line x1="269.18" y1="381.15" x2="249.18" y2="392.70"/><line x1="249.18" y1="392.70" x2="229.17" y2="381.15"/><line x1="95.81" y1="84.15" x2="95.81" y2="61.05"/><line x1="95.81" y1="61.05" x2="115.81" y2="49.50"/><line x1="307.29" y1="381.15" x2="287.28" y2="392.70"/><line x1="287.28" y1="392.70" x2="267.28" y2="381.15"/><line x1="114.86" y1="51.15" x2="114.86" y2="28.05"/><line x1="114.86" y1="28.05" x2="134.86" y2="16.50"/><line x1="134.86" y1="16.50" x2="154.87" y2="28.05"/><line x1="345.39" y1="358.05" x2="345.39" y2="381.15"/><line x1="345.39" y1="381.15" x2="325.39" y2="392.70"/><line x1="325.39" y1="392.70" x2="305.38" y2="381.15"/><line x1="152.96" y1="28.05" x2="172.97" y2="16.50"/><line x1="172.97" y1="16.50" x2="192.97" y2="28.05"/><line x1="364.45" y1="325.05" x2="364.45" y2="348.15"/><line x1="364.45" y1="348.15" x2="344.44" y2="359.70"/><line x1="191.07" y1="28.05" x2="211.07" y2="16.50"/><line x1="211.07" y1="16.50" x2="231.08" y2="28.05"/><line x1="383.50" y1="292.05" x2="383.50" y2="315.15"/><line x1="383.50" y1="315.15" x2="363.49" y2="326.70"/><line x1="229.17" y1="28.05" x2="249.18" y2="16.50"/><line x1="249.18" y1="16.50" x2="269.18" y2="28.05"/><line x1="402.55" y1="259.05" x2="402.55" y2="282.15"/><line x1="402.55" y1="282.15" x2="382.55" y2="293.70"/><line x1="267.28" y1="28.05" x2="287.28" y2="16.50"/><line x1="287.28" y1="16.50" x2="307.29" y2="28.05"/><line x1="421.60" y1="226.05" x2="421.60" y2="249.15"/><line x1="421.60" y1="249.15" x2="401.60" y2="260.70"/><line x1="345.39" y1="28.05" x2="345.39" y2="51.15"/><line x1="305.38" y1="28.05" x2="325.39" y2="16.50"/><line x1="325.39" y1="16.50" x2="345.39" y2="28.05"/><line x1="364.45" y1="61.05" x2="364.45" y2="84.15"/><line x1="344.44" y1="49.50" x2="364.45" y2="61.05"/><line x1="383.50" y1="94.05" x2="383.50" y2="117.15"/><line x1="363.49" y1="82.50" x2="383.50" y2="94.05"/><line x1="402.55" y1="127.05" x2="402.55" y2="150.15"/><line x1="382.55" y1="115.50" x2="402.55" y2="127.05"/><line x1="421.60" y1="160.05" x2="421.60" y2="183.15"/><line x1="401.60" y1="148.50" x2="421.60" y2="160.05"/><line x1="440.66" y1="193.05" x2="440.66" y2="216.15"/><line x1="440.66" y1="216.15" x2="420.65" y2="227.70"/><line x1="420.65" y1="181.50" x2="440.66" y2="193.05"/></g><polygon points="57.70,194.15 57.70,215.05 39.60,225.50 21.50,215.05 21.50,194.15 39.60,183.70" fill="#e6a817" stroke="rgba(0,0,0,0.25)" stroke-width="1" data-sq="-5,0" class="board-cell"/><polygon points="76.75,227.15 76.75,248.05 58.65,258.50 40.55,248.05 40.55,227.15 58.65,216.70" fill="#e6a817" stroke="rgba(0,0,0,0.25)" stroke-width="1" data-sq="-5,1" class="board-cell"/><polygon points="95.81,260.15 95.81,281.05 77.71,291.50 59.61,281.05 59.61,260.15 77.71,249.70" fill="#e6a817" stroke="rgba(0,0,0,0.25)" stroke-width="1" data-sq="-5,2" class="board-cell"/><polygon points="114.86,293.15 114.86,314.05 96.76,324.50 78.66,314.05 78.66,293.15 96.76,282.70" fill="#e6a817" stroke="rgba(0,0,0,0.25)" stroke-width="1" data-sq="-5,3" class="board-cell"/><polygon points="133.91,326.15 133.91,347.05 115.81,357.50 97.71,347.05 97.71,326.15 115.81,315.70" fill="#e6a817" stroke="rgba(0,0,0,0.25)" stroke-width="1" data-sq="-5,4" class="board-cell"/><polygon points="152.96,359.15 152.96,380.05 134.86,390.50 116.76,380.05 116.76,359.15 134.86,348.70" fill="#e6a817" stroke="rgba(0,0,0,0.25)" stroke-width="1" data-sq="-5,5" class="board-cell"/><polygon points="76.75,161.15 76.75,182.05 58.65,192.50 40.55,182.05 40.55,161.15 58.65,150.70" fill="#e6a817" stroke="rgba(0,0,0,0.25)" stroke-width="1" data-sq="-4,-1" class="board-cell"/><polygon points="95.81,194.15 95.81,215.05 77.71,225.50 59.61,215.05 59.61,194.15 77.71,183.70" fill="#8b2240" stroke="rgba(0,0,0,0.25)" stroke-width="1" data-sq="-4,0" class="board-cell"/><polygon points="114.86,227.15 114.86,248.05 96.76,258.50 78.66,248.05 78.66,227.15 96.76,216.70" fill="#8b2240" stroke="rgba(0,0,0,0.25)" stroke-width="1" data-sq="-4,1" class="board-cell"/><polygon points="133.91,260.15 133.91,281.05 115.81,291.50 97.71,281.05 97.71,260.15 115.81,249.70" fill="#8b2240" stroke="rgba(0,0,0,0.25)" stroke-width="1" data-sq="-4,2" class="board-cell"/><polygon points="152.96,293.15 152.96,314.05 134.86,324.50 116.76,314.05 116.76,293.15 134.86,282.70" fill="#8b2240" stroke="rgba(0,0,0,0.25)" stroke-width="1" data-sq="-4,3" class="board-cell"/><polygon points="172.02,326.15 172.02,347.05 153.92,357.50 135.82,347.05 135.82,326.15 153.92,315.70" fill="#8b2240" stroke="rgba(0,0,0,0.25)" stroke-width="1" data-sq="-4,4" class="board-cell"/><polygon points="191.07,359.15 191.07,380.05 172.97,390.50 154.87,380.05 154.87,359.15 172.97,348.70" fill="#e6a817" stroke="rgba(0,0,0,0.25)" stroke-width="1" data-sq="-4,5" class="board-cell"/><polygon points="95.81,128.15 95.81,149.05 77.71,159.50 59.61,149.05 59.61,128.15 77.71,117.70" fill="#e6a817" stroke="rgba(0,0,0,0.25)" stroke-width="1" data-sq="-3,-2" class="board-cell"/><polygon points="114.86,161.15 114.86,182.05 96.76,192.50 78.66,182.05 78.66,161.15 96.76,150.70" fill="#8b2240" stroke="rgba(0,0,0,0.25)" stroke-width="1" data-sq="-3,-1" class="board-cell"/><polygon points="133.91,194.15 133.91,215.05 115.81,225.50 97.71,215.05 97.71,194.15 115.81,183.70" fill="#e6a817" stroke="rgba(0,0,0,0.25)" stroke-width="1" data-sq="-3,0" class="board-cell"/><polygon points="152.96,227.15 152.96,248.05 134.86,258.50 116.76,248.05 116.76,227.15 134.86,216.70" fill="#e6a817" stroke="rgba(0,0,0,0.25)" stroke-width="1" data-sq="-3,1" class="board-cell"/><polygon points="172.02,260.15 172.02,281.05 153.92,291.50 135.82,281.05 135.82,260.15 153.92,249.70" fill="#e6a817" stroke="rgba(0,0,0,0.25)" stroke-width="1" data-sq="-3,2" class="board-cell"/><polygon points="191.07,293.15 191.07,314.05 172.97,324.50 154.87,314.05 154.87,293.15 172.97,282.70" fill="#e6a817" stroke="rgba(0,0,0,0.25)" stroke-width="1" data-sq="-3,3" class="board-cell"/><polygon points="210.12,326.15 210.12,347.05 192.02,357.50 173.92,347.05 173.92,326.15 192.02,315.70" fill="#8b2240" stroke="rgba(0,0,0,0.25)" stroke-width="1" data-sq="-3,4" class="board-cell"/><polygon points="229.17,359.15 229.17,380.05 211.07,390.50 192.97,380.05 192.97,359.15 211.07,348.70" fill="#e6a817" stroke="rgba(0,0,0,0.25)" stroke-width="1" data-sq="-3,5" class="board-cell"/><polygon points="114.86,95.15 114.86,116.05 96.76,126.50 78.66,116.05 78.66,95.15 96.76,84.70" fill="#e6a817" stroke="rgba(0,0,0,0.25)" stroke-width="1" data-sq="-2,-3" class="board-cell"/><polygon points="133.91,128.15 133.91,149.05 115.81,159.50 97.71,149.05 97.71,128.15 115.81,117.70" fill="#8b2240" stroke="rgba(0,0,0,0.25)" stroke-width="1" data-sq="-2,-2" class="board-cell"/><polygon points="152.96,161.15 152.96,182.05 134.86,192.50 116.76,182.05 116.76,161.15 134.86,150.70" fill="#e6a817" stroke="rgba(0,0,0,0.25)" stroke-width="1" data-sq="-2,-1" class="board-cell"/><polygon points="172.02,194.15 172.02,215.05 153.92,225.50 135.82,215.05 135.82,194.15 153.92,183.70" fill="#8b2240" stroke="rgba(0,0,0,0.25)" stroke-width="1" data-sq="-2,0" class="board-cell"/><polygon points="191.07,227.15 191.07,248.05 172.97,258.50 154.87,248.05 154.87,227.15 172.97,216.70" fill="#8b2240" stroke="rgba(0,0,0,0.25)" stroke-width="1" data-sq="-2,1" class="board-cell"/><polygon points="210.12,260.15 210.12,281.05 192.02,291.50 173.92,281.05 173.92,260.15 192.02,249.70" fill="#8b2240" stroke="rgba(0,0,0,0.25)" stroke-width="1" data-sq="-2,2" class="board-cell"/><polygon points="229.17,293.15 229.17,314.05 211.07,324.50 192.97,314.05 192.97,293.15 211.07,282.70" fill="#e6a817" stroke="rgba(0,0,0,0.25)" stroke-width="1" data-sq="-2,3" class="board-cell"/><polygon points="248.23,326.15 248.23,347.05 230.13,357.50 212.03,347.05 212.03,326.15 230.13,315.70" fill="#8b2240" stroke="rgba(0,0,0,0.25)" stroke-width="1" data-sq="-2,4" class="board-cell"/><polygon points="267.28,359.15 267.28,380.05 249.18,390.50 231.08,380.05 231.08,359.15 249.18,348.70" fill="#e6a817" stroke="rgba(0,0,0,0.25)" stroke-width="1" data-sq="-2,5" class="board-cell"/><polygon points="133.91,62.15 133.91,83.05 115.81,93.50 97.71,83.05 97.71,62.15 115.81,51.70" fill="#e6a817" stroke="rgba(0,0,0,0.25)" stroke-width="1" data-sq="-1,-4" class="board-cell"/><polygon points="152.96,95.15 152.96,116.05 134.86,126.50 116.76,116.05 116.76,95.15 134.86,84.70" fill="#8b2240" stroke="rgba(0,0,0,0.25)" stroke-width="1" data-sq="-1,-3" class="board-cell"/><polygon points="172.02,128.15 172.02,149.05 153.92,159.50 135.82,149.05 135.82,128.15 153.92,117.70" fill="#e6a817" stroke="rgba(0,0,0,0.25)" stroke-width="1" data-sq="-1,-2" class="board-cell"/><polygon points="191.07,161.15 191.07,182.05 172.97,192.50 154.87,182.05 154.87,161.15 172.97,150.70" fill="#8b2240" stroke="rgba(0,0,0,0.25)" stroke-width="1" data-sq="-1,-1" class="board-cell"/><polygon points="210.12,194.15 210.12,215.05 192.02,225.50 173.92,215.05 173.92,194.15 192.02,183.70" fill="#e6a817" stroke="rgba(0,0,0,0.25)" stroke-width="1" data-sq="-1,0" class="board-cell"/><polygon points="229.17,227.15 229.17,248.05 211.07,258.50 192.97,248.05 192.97,227.15 211.07,216.70" fill="#e6a817" stroke="rgba(0,0,0,0.25)" stroke-width="1" data-sq="-1,1" class="board-cell"/><polygon points="248.23,260.15 248.23,281.05 230.13,291.50 212.03,281.05 212.03,260.15 230.13,249.70" fill="#8b2240" stroke="rgba(0,0,0,0.25)" stroke-width="1" data-sq="-1,2" class="board-cell"/><polygon points="267.28,293.15 267.28,314.05 249.18,324.50 231.08,314.05 231.08,293.15 249.18,282.70" fill="#e6a817" stroke="rgba(0,0,0,0.25)" stroke-width="1" data-sq="-1,3" class="board-cell"/><polygon points="286.33,326.15 286.33,347.05 268.23,357.50 250.13,347.05 250.13,326.15 268.23,315.70" fill="#8b2240" stroke="rgba(0,0,0,0.25)" stroke-width="1" data-sq="-1,4" class="board-cell"/><polygon points="305.38,359.15 305.38,380.05 287.28,390.50 269.18,380.05 269.18,359.15 287.28,348.70" fill="#e6a817" stroke="rgba(0,0,0,0.25)" stroke-width="1" data-sq="-1,5" class="board-cell"/><polygon points="152.96,29.15 152.96,50.05 134.86,60.50 116.76,50.05 116.76,29.15 134.86,18.70" fill="#e6a817" stroke="rgba(0,0,0,0.25)" stroke-width="1" data-sq="0,-5" class="board-cell"/><polygon points="172.02,62.15 172.02,83.05 153.92,93.50 135.82,83.05 135.82,62.15 153.92,51.70" fill="#8b2240" stroke="rgba(0,0,0,0.25)" stroke-width="1" data-sq="0,-4" class="board-cell"/><polygon points="191.07,95.15 191.07,116.05 172.97,126.50 154.87,116.05 154.87,95.15 172.97,84.70" fill="#e6a817" stroke="rgba(0,0,0,0.25)" stroke-width="1" data-sq="0,-3" class="board-cell"/><polygon points="210.12,128.15 210.12,149.05 192.02,159.50 173.92,149.05 173.92,128.15 192.02,117.70" fill="#8b2240" stroke="rgba(0,0,0,0.25)" stroke-width="1" data-sq="0,-2" class="board-cell"/><polygon points="229.17,161.15 229.17,182.05 211.07,192.50 192.97,182.05 192.97,161.15 211.07,150.70" fill="#e6a817" stroke="rgba(0,0,0,0.25)" stroke-width="1" data-sq="0,-1" class="board-cell"/><polygon points="248.23,194.15 248.23,215.05 230.13,225.50 212.03,215.05 212.03,194.15 230.13,183.70" fill="#8b2240" stroke="rgba(0,0,0,0.25)" stroke-width="1" data-sq="0,0" class="board-cell"/><polygon points="267.28,227.15 267.28,248.05 249.18,258.50 231.08,248.05 231.08,227.15 249.18,216.70" fill="#e6a817" stroke="rgba(0,0,0,0.25)" stroke-width="1" data-sq="0,1" class="board-cell"/><polygon points="286.33,260.15 286.33,281.05 268.23,291.50 250.13,281.05 250.13,260.15 268.23,249.70" fill="#8b2240" stroke="rgba(0,0,0,0.25)" stroke-width="1" data-sq="0,2" class="board-cell"/><polygon points="305.38,293.15 305.38,314.05 287.28,324.50 269.18,314.05 269.18,293.15 287.28,282.70" fill="#e6a817" stroke="rgba(0,0,0,0.25)" stroke-width="1" data-sq="0,3" class="board-cell"/><polygon points="324.44,326.15 324.44,347.05 306.34,357.50 288.24,347.05 288.24,326.15 306.34,315.70" fill="#8b2240" stroke="rgba(0,0,0,0.25)" stroke-width="1" data-sq="0,4" class="board-cell"/><polygon points="343.49,359.15 343.49,380.05 325.39,390.50 307.29,380.05 307.29,359.15 325.39,348.70" fill="#e6a817" stroke="rgba(0,0,0,0.25)" stroke-width="1" data-sq="0,5" class="board-cell"/><polygon points="191.07,29.15 191.07,50.05 172.97,60.50 154.87,50.05 154.87,29.15 172.97,18.70" fill="#e6a817" stroke="rgba(0,0,0,0.25)" stroke-width="1" data-sq="1,-5" class="board-cell"/><polygon points="210.12,62.15 210.12,83.05 192.02,93.50 173.92,83.05 173.92,62.15 192.02,51.70" fill="#8b2240" stroke="rgba(0,0,0,0.25)" stroke-width="1" data-sq="1,-4" class="board-cell"/><polygon points="229.17,95.15 229.17,116.05 211.07,126.50 192.97,116.05 192.97,95.15 211.07,84.70" fill="#e6a817" stroke="rgba(0,0,0,0.25)" stroke-width="1" data-sq="1,-3" class="board-cell"/><polygon points="248.23,128.15 248.23,149.05 230.13,159.50 212.03,149.05 212.03,128.15 230.13,117.70" fill="#8b2240" stroke="rgba(0,0,0,0.25)" stroke-width="1" data-sq="1,-2" class="board-cell"/><polygon points="267.28,161.15 267.28,182.05 249.18,192.50 231.08,182.05 231.08,161.15 249.18,150.70" fill="#e6a817" stroke="rgba(0,0,0,0.25)" stroke-width="1" data-sq="1,-1" class="board-cell"/><polygon points="286.33,194.15 286.33,215.05 268.23,225.50 250.13,215.05 250.13,194.15 268.23,183.70" fill="#e6a817" stroke="rgba(0,0,0,0.25)" stroke-width="1" data-sq="1,0" class="board-cell"/><polygon points="305.38,227.15 305.38,248.05 287.28,258.50 269.18,248.05 269.18,227.15 287.28,216.70" fill="#8b2240" stroke="rgba(0,0,0,0.25)" stroke-width="1" data-sq="1,1" class="board-cell"/><polygon points="324.44,260.15 324.44,281.05 306.34,291.50 288.24,281.05 288.24,260.15 306.34,249.70" fill="#e6a817" stroke="rgba(0,0,0,0.25)" stroke-width="1" data-sq="1,2" class="board-cell"/><polygon points="343.49,293.15 343.49,314.05 325.39,324.50 307.29,314.05 307.29,293.15 325.39,282.70" fill="#8b2240" stroke="rgba(0,0,0,0.25)" stroke-width="1" data-sq="1,3" class="board-cell"/><polygon points="362.54,326.15 362.54,347.05 344.44,357.50 326.34,347.05 326.34,326.15 344.44,315.70" fill="#e6a817" stroke="rgba(0,0,0,0.25)" stroke-width="1" data-sq="1,4" class="board-cell"/><polygon points="229.17,29.15 229.17,50.05 211.07,60.50 192.97,50.05 192.97,29.15 211.07,18.70" fill="#e6a817" stroke="rgba(0,0,0,0.25)" stroke-width="1" data-sq="2,-5" class="board-cell"/><polygon points="248.23,62.15 248.23,83.05 230.13,93.50 212.03,83.05 212.03,62.15 230.13,51.70" fill="#8b2240" stroke="rgba(0,0,0,0.25)" stroke-width="1" data-sq="2,-4" class="board-cell"/><polygon points="267.28,95.15 267.28,116.05 249.18,126.50 231.08,116.05 231.08,95.15 249.18,84.70" fill="#e6a817" stroke="rgba(0,0,0,0.25)" stroke-width="1" data-sq="2,-3" class="board-cell"/><polygon points="286.33,128.15 286.33,149.05 268.23,159.50 250.13,149.05 250.13,128.15 268.23,117.70" fill="#8b2240" stroke="rgba(0,0,0,0.25)" stroke-width="1" data-sq="2,-2" class="board-cell"/><polygon points="305.38,161.15 305.38,182.05 287.28,192.50 269.18,182.05 269.18,161.15 287.28,150.70" fill="#8b2240" stroke="rgba(0,0,0,0.25)" stroke-width="1" data-sq="2,-1" class="board-cell"/><polygon points="324.44,194.15 324.44,215.05 306.34,225.50 288.24,215.05 288.24,194.15 306.34,183.70" fill="#8b2240" stroke="rgba(0,0,0,0.25)" stroke-width="1" data-sq="2,0" class="board-cell"/><polygon points="343.49,227.15 343.49,248.05 325.39,258.50 307.29,248.05 307.29,227.15 325.39,216.70" fill="#e6a817" stroke="rgba(0,0,0,0.25)" stroke-width="1" data-sq="2,1" class="board-cell"/><polygon points="362.54,260.15 362.54,281.05 344.44,291.50 326.34,281.05 326.34,260.15 344.44,249.70" fill="#8b2240" stroke="rgba(0,0,0,0.25)" stroke-width="1" data-sq="2,2" class="board-cell"/><polygon points="381.59,293.15 381.59,314.05 363.49,324.50 345.39,314.05 345.39,293.15 363.49,282.70" fill="#e6a817" stroke="rgba(0,0,0,0.25)" stroke-width="1" data-sq="2,3" class="board-cell"/><polygon points="267.28,29.15 267.28,50.05 249.18,60.50 231.08,50.05 231.08,29.15 249.18,18.70" fill="#e6a817" stroke="rgba(0,0,0,0.25)" stroke-width="1" data-sq="3,-5" class="board-cell"/><polygon points="286.33,62.15 286.33,83.05 268.23,93.50 250.13,83.05 250.13,62.15 268.23,51.70" fill="#8b2240" stroke="rgba(0,0,0,0.25)" stroke-width="1" data-sq="3,-4" class="board-cell"/><polygon points="305.38,95.15 305.38,116.05 287.28,126.50 269.18,116.05 269.18,95.15 287.28,84.70" fill="#e6a817" stroke="rgba(0,0,0,0.25)" stroke-width="1" data-sq="3,-3" class="board-cell"/><polygon points="324.44,128.15 324.44,149.05 306.34,159.50 288.24,149.05 288.24,128.15 306.34,117.70" fill="#e6a817" stroke="rgba(0,0,0,0.25)" stroke-width="1" data-sq="3,-2" class="board-cell"/><polygon points="343.49,161.15 343.49,182.05 325.39,192.50 307.29,182.05 307.29,161.15 325.39,150.70" fill="#e6a817" stroke="rgba(0,0,0,0.25)" stroke-width="1" data-sq="3,-1" class="board-cell"/><polygon points="362.54,194.15 362.54,215.05 344.44,225.50 326.34,215.05 326.34,194.15 344.44,183.70" fill="#e6a817" stroke="rgba(0,0,0,0.25)" stroke-width="1" data-sq="3,0" class="board-cell"/><polygon points="381.59,227.15 381.59,248.05 363.49,258.50 345.39,248.05 345.39,227.15 363.49,216.70" fill="#8b2240" stroke="rgba(0,0,0,0.25)" stroke-width="1" data-sq="3,1" class="board-cell"/><polygon points="400.65,260.15 400.65,281.05 382.55,291.50 364.45,281.05 364.45,260.15 382.55,249.70" fill="#e6a817" stroke="rgba(0,0,0,0.25)" stroke-width="1" data-sq="3,2" class="board-cell"/><polygon points="305.38,29.15 305.38,50.05 287.28,60.50 269.18,50.05 269.18,29.15 287.28,18.70" fill="#e6a817" stroke="rgba(0,0,0,0.25)" stroke-width="1" data-sq="4,-5" class="board-cell"/><polygon points="324.44,62.15 324.44,83.05 306.34,93.50 288.24,83.05 288.24,62.15 306.34,51.70" fill="#8b2240" stroke="rgba(0,0,0,0.25)" stroke-width="1" data-sq="4,-4" class="board-cell"/><polygon points="343.49,95.15 343.49,116.05 325.39,126.50 307.29,116.05 307.29,95.15 325.39,84.70" fill="#8b2240" stroke="rgba(0,0,0,0.25)" stroke-width="1" data-sq="4,-3" class="board-cell"/><polygon points="362.54,128.15 362.54,149.05 344.44,159.50 326.34,149.05 326.34,128.15 344.44,117.70" fill="#8b2240" stroke="rgba(0,0,0,0.25)" stroke-width="1" data-sq="4,-2" class="board-cell"/><polygon points="381.59,161.15 381.59,182.05 363.49,192.50 345.39,182.05 345.39,161.15 363.49,150.70" fill="#8b2240" stroke="rgba(0,0,0,0.25)" stroke-width="1" data-sq="4,-1" class="board-cell"/><polygon points="400.65,194.15 400.65,215.05 382.55,225.50 364.45,215.05 364.45,194.15 382.55,183.70" fill="#8b2240" stroke="rgba(0,0,0,0.25)" stroke-width="1" data-sq="4,0" class="board-cell"/><polygon points="419.70,227.15 419.70,248.05 401.60,258.50 383.50,248.05 383.50,227.15 401.60,216.70" fill="#e6a817" stroke="rgba(0,0,0,0.25)" stroke-width="1" data-sq="4,1" class="board-cell"/><polygon points="343.49,29.15 343.49,50.05 325.39,60.50 307.29,50.05 307.29,29.15 325.39,18.70" fill="#e6a817" stroke="rgba(0,0,0,0.25)" stroke-width="1" data-sq="5,-5" class="board-cell"/><polygon points="362.54,62.15 362.54,83.05 344.44,93.50 326.34,83.05 326.34,62.15 344.44,51.70" fill="#e6a817" stroke="rgba(0,0,0,0.25)" stroke-width="1" data-sq="5,-4" class="board-cell"/><polygon points="381.59,95.15 381.59,116.05 363.49,126.50 345.39,116.05 345.39,95.15 363.49,84.70" fill="#e6a817" stroke="rgba(0,0,0,0.25)" stroke-width="1" data-sq="5,-3" class="board-cell"/><polygon points="400.65,128.15 400.65,149.05 382.55,159.50 364.45,149.05 364.45,128.15 382.55,117.70" fill="#e6a817" stroke="rgba(0,0,0,0.25)" stroke-width="1" data-sq="5,-2" class="board-cell"/><polygon points="419.70,161.15 419.70,182.05 401.60,192.50 383.50,182.05 383.50,161.15 401.60,150.70" fill="#e6a817" stroke="rgba(0,0,0,0.25)" stroke-width="1" data-sq="5,-1" class="board-cell"/><polygon points="438.75,194.15 438.75,215.05 420.65,225.50 402.55,215.05 402.55,194.15 420.65,183.70" fill="#e6a817" stroke="rgba(0,0,0,0.25)" stroke-width="1" data-sq="5,0" class="board-cell"/><text x="230.12558883257648" y="211.2" text-anchor="middle" font-size="17.6" fill="rgba(255,200,50,0.85)" pointer-events="none">★</text><g pointer-events="none"><image href="../pieces/sets/mce-chess/wQ.svg" x="22.0" y="187.0" width="35.2" height="35.2"/><image href="../pieces/sets/mce-chess/bQ.svg" x="403.1" y="187.0" width="35.2" height="35.2"/><image href="../pieces/sets/mce-chess/wP.svg" x="269.7" y="22.0" width="35.2" height="35.2"/><image href="../pieces/sets/mce-chess/wP.svg" x="364.9" y="121.0" width="35.2" height="35.2"/><image href="../pieces/sets/mce-chess/wP.svg" x="364.9" y="253.0" width="35.2" height="35.2"/><image href="../pieces/sets/mce-chess/wP.svg" x="269.7" y="352.0" width="35.2" height="35.2"/><image href="../pieces/sets/mce-chess/wP.svg" x="98.2" y="319.0" width="35.2" height="35.2"/><image href="../pieces/sets/mce-chess/wP.svg" x="98.2" y="55.0" width="35.2" height="35.2"/><image href="../pieces/sets/mce-chess/bP.svg" x="155.4" y="22.0" width="35.2" height="35.2"/><image href="../pieces/sets/mce-chess/bP.svg" x="326.8" y="55.0" width="35.2" height="35.2"/><image href="../pieces/sets/mce-chess/bP.svg" x="326.8" y="319.0" width="35.2" height="35.2"/><image href="../pieces/sets/mce-chess/bP.svg" x="155.4" y="352.0" width="35.2" height="35.2"/><image href="../pieces/sets/mce-chess/bP.svg" x="60.1" y="253.0" width="35.2" height="35.2"/><image href="../pieces/sets/mce-chess/bP.svg" x="60.1" y="121.0" width="35.2" height="35.2"/></g>
</svg>