<svg xmlns="http://www.w3.org/2000/svg" width="368" height="368" viewBox="0 0 368 368">
<title>Sittuyin (Burmese Chess) — starting position</title>
<defs><symbol id="piece-p" viewBox="0 0 45 45"><path d="M 22,9 C 19.79,9 18,10.79 18,13 C 18,13.89 18.29,14.71 18.78,15.38 C 16.83,16.5 15.5,18.59 15.5,21 C 15.5,23.03 16.44,24.84 17.91,26.03 C 14.91,27.09 10.5,31.58 10.5,39.5 L 33.5,39.5 C 33.5,31.58 29.09,27.09 26.09,26.03 C 27.56,24.84 28.5,23.03 28.5,21 C 28.5,18.59 27.17,16.5 25.22,15.38 C 25.71,14.71 26,13.89 26,13 C 26,10.79 24.21,9 22,9 z" style="fill:#000;stroke:#000;stroke-width:1.5;stroke-linecap:round"/></symbol><symbol id="piece-P" viewBox="0 0 45 45"><path d="M 22,9 C 19.79,9 18,10.79 18,13 C 18,13.89 18.29,14.71 18.78,15.38 C 16.83,16.5 15.5,18.59 15.5,21 C 15.5,23.03 16.44,24.84 17.91,26.03 C 14.91,27.09 10.5,31.58 10.5,39.5 L 33.5,39.5 C 33.5,31.58 29.09,27.09 26.09,26.03 C 27.56,24.84 28.5,23.03 28.5,21 C 28.5,18.59 27.17,16.5 25.22,15.38 C 25.71,14.71 26,13.89 26,13 C 26,10.79 24.21,9 22,9 z" style="fill:#fff;stroke:#000;stroke-width:1.5;stroke-linecap:round"/></symbol></defs>
<rect x="24" y="24" width="40" height="40" fill="#f0d9b5"/><rect x="64" y="24" width="40" height="40" fill="#b58863"/><rect x="104" y="24" width="40" height="40" fill="#f0d9b5"/><rect x="144" y="24" width="40" height="40" fill="#b58863"/><rect x="184" y="24" width="40" height="40" fill="#f0d9b5"/><rect x="224" y="24" width="40" height="40" fill="#b58863"/><rect x="264" y="24" width="40" height="40" fill="#f0d9b5"/><rect x="304" y="24" width="40" height="40" fill="#b58863"/><rect x="24" y="64" width="40" height="40" fill="#b58863"/><rect x="64" y="64" width="40" height="40" fill="#f0d9b5"/><rect x="104" y="64" width="40" height="40" fill="#b58863"/><rect x="144" y="64" width="40" height="40" fill="#f0d9b5"/><rect x="184" y="64" width="40" height="40" fill="#b58863"/><rect x="224" y="64" width="40" height="40" fill="#f0d9b5"/><rect x="264" y="64" width="40" height="40" fill="#b58863"/><rect x="304" y="64" width="40" height="40" fill="#f0d9b5"/><rect x="24" y="104" width="40" height="40" fill="#f0d9b5"/><rect x="64" y="104" width="40" height="40" fill="#b58863"/><rect x="104" y="104" width="40" height="40" fill="#f0d9b5"/><rect x="144" y="104" width="40" height="40" fill="#b58863"/><rect x="184" y="104" width="40" height="40" fill="#f0d9b5"/><rect x="224" y="104" width="40" height="40" fill="#b58863"/><rect x="264" y="104" width="40" height="40" fill="#f0d9b5"/><rect x="304" y="104" width="40" height="40" fill="#b58863"/><rect x="24" y="144" width="40" height="40" fill="#b58863"/><rect x="64" y="144" width="40" height="40" fill="#f0d9b5"/><rect x="104" y="144" width="40" height="40" fill="#b58863"/><rect x="144" y="144" width="40" height="40" fill="#f0d9b5"/><rect x="184" y="144" width="40" height="40" fill="#b58863"/><rect x="224" y="144" width="40" height="40" fill="#f0d9b5"/><rect x="264" y="144" width="40" height="40" fill="#b58863"/><rect x="304" y="144" width="40" height="40" fill="#f0d9b5"/><rect x="24" y="184" width="40" height="40" fill="#f0d9b5"/><rect x="64" y="184" width="40" height="40" fill="#b58863"/><rect x="104" y="184" width="40" height="40" fill="#f0d9b5"/><rect x="144" y="184" width="40" height="40" fill="#b58863"/><rect x="184" y="184" width="40" height="40" fill="#f0d9b5"/><rect x="224" y="184" width="40" height="40" fill="#b58863"/><rect x="264" y="184" width="40" height="40" fill="#f0d9b5"/><rect x="304" y="184" width="40" height="40" fill="#b58863"/><rect x="24" y="224" width="40" height="40" fill="#b58863"/><rect x="64" y="224" width="40" height="40" fill="#f0d9b5"/><rect x="104" y="224" width="40" height="40" fill="#b58863"/><rect x="144" y="224" width="40" height="40" fill="#f0d9b5"/><rect x="184" y="224" width="40" height="40" fill="#b58863"/><rect x="224" y="224" width="40" height="40" fill="#f0d9b5"/><rect x="264" y="224" width="40" height="40" fill="#b58863"/><rect x="304" y="224" width="40" height="40" fill="#f0d9b5"/><rect x="24" y="264" width="40" height="40" fill="#f0d9b5"/><rect x="64" y="264" width="40" height="40" fill="#b58863"/><rect x="104" y="264" width="40" height="40" fill="#f0d9b5"/><rect x="144" y="264" width="40" height="40" fill="#b58863"/><rect x="184" y="264" width="40" height="40" fill="#f0d9b5"/><rect x="224" y="264" width="40" height="40" fill="#b58863"/><rect x="264" y="264" width="40" height="40" fill="#f0d9b5"/><rect x="304" y="264" width="40" height="40" fill="#b58863"/><rect x="24" y="304" width="40" height="40" fill="#b58863"/><rect x="64" y="304" width="40" height="40" fill="#f0d9b5"/><rect x="104" y="304" width="40" height="40" fill="#b58863"/><rect x="144" y="304" width="40" height="40" fill="#f0d9b5"/><rect x="184" y="304" width="40" height="40" fill="#b58863"/><rect x="224" y="304" width="40" height="40" fill="#f0d9b5"/><rect x="264" y="304" width="40" height="40" fill="#b58863"/><rect x="304" y="304" width="40" height="40" fill="#f0d9b5"/>
<use href="#piece-p" x="184" y="104" width="40" height="40"/><use href="#piece-p" x="224" y="104" width="40" height="40"/><use href="#piece-p" x="264" y="104" width="40" height="40"/><use href="#piece-p" x="304" y="104" width="40" height="40"/><use href="#piece-p" x="24" y="144" width="40" height="40"/><use href="#piece-p" x="64" y="144" width="40" height="40"/><use href="#piece-p" x="104" y="144" width="40" height="40"/><use href="#piece-p" x="144" y="144" width="40" height="40"/><use href="#piece-P" x="184" y="184" width="40" height="40"/><use href="#piece-P" x="224" y="184" width="40" height="40"/><use href="#piece-P" x="264" y="184" width="40" height="40"/><use href="#piece-P" x="304" y="184" width="40" height="40"/><use href="#piece-P" x="24" y="224" width="40" height="40"/><use href="#piece-P" x="64" y="224" width="40" height="40"/><use href="#piece-P" x="104" y="224" width="40" height="40"/><use href="#piece-P" x="144" y="224" width="40" height="40"/>
<text x="44" y="359.6" text-anchor="middle" font-size="13" fill="#5c3a1e" font-family="monospace">a</text><text x="84" y="359.6" text-anchor="middle" font-size="13" fill="#5c3a1e" font-family="monospace">b</text><text x="124" y="359.6" text-anchor="middle" font-size="13" fill="#5c3a1e" font-family="monospace">c</text><text x="164" y="359.6" text-anchor="middle" font-size="13" fill="#5c3a1e" font-family="monospace">d</text><text x="204" y="359.6" text-anchor="middle" font-size="13" fill="#5c3a1e" font-family="monospace">e</text><text x="244" y="359.6" text-anchor="middle" font-size="13" fill="#5c3a1e" font-family="monospace">f</text><text x="284" y="359.6" text-anchor="middle" font-size="13" fill="#5c3a1e" font-family="monospace">g</text><text x="324" y="359.6" text-anchor="middle" font-size="13" fill="#5c3a1e" font-family="monospace">h</text><text x="12" y="48.55" text-anchor="middle" font-size="13" fill="#5c3a1e" font-family="monospace">8</text><text x="12" y="88.55" text-anchor="middle" font-size="13" fill="#5c3a1e" font-family="monospace">7</text><text x="12" y="128.55" text-anchor="middle" font-size="13" fill="#5c3a1e" font-family="monospace">6</text><text x="12" y="168.55" text-anchor="middle" font-size="13" fill="#5c3a1e" font-family="monospace">5</text><text x="12" y="208.55" text-anchor="middle" font-size="13" fill="#5c3a1e" font-family="monospace">4</text><text x="12" y="248.55" text-anchor="middle" font-size="13" fill="#5c3a1e" font-family="monospace">3</text><text x="12" y="288.55" text-anchor="middle" font-size="13" fill="#5c3a1e" font-family="monospace">2</text><text x="12" y="328.55" text-anchor="middle" font-size="13" fill="#5c3a1e" font-family="monospace">1</text>
</svg>