<svg xmlns="http://www.w3.org/2000/svg" width="360" height="400" viewBox="0 0 360 400">
<title>Janggi &#x2014; starting position (inner elephant setup)</title>
<rect x="0" y="0" width="360" height="400" fill="#f5deb3"/>
<rect x="0" y="0" width="360" height="400" fill="none" stroke="#4a3520" stroke-width="2"/>
<g stroke="#4a3520" stroke-width="1">
<line x1="20" y1="20" x2="340" y2="20"/>
<line x1="20" y1="60" x2="340" y2="60"/>
<line x1="20" y1="100" x2="340" y2="100"/>
<line x1="20" y1="140" x2="340" y2="140"/>
<line x1="20" y1="180" x2="340" y2="180"/>
<line x1="20" y1="220" x2="340" y2="220"/>
<line x1="20" y1="260" x2="340" y2="260"/>
<line x1="20" y1="300" x2="340" y2="300"/>
<line x1="20" y1="340" x2="340" y2="340"/>
<line x1="20" y1="380" x2="340" y2="380"/>
<line x1="20" y1="20" x2="20" y2="380"/>
<line x1="60" y1="20" x2="60" y2="380"/>
<line x1="100" y1="20" x2="100" y2="380"/>
<line x1="140" y1="20" x2="140" y2="380"/>
<line x1="180" y1="20" x2="180" y2="380"/>
<line x1="220" y1="20" x2="220" y2="380"/>
<line x1="260" y1="20" x2="260" y2="380"/>
<line x1="300" y1="20" x2="300" y2="380"/>
<line x1="340" y1="20" x2="340" y2="380"/>
</g>
<g stroke="#4a3520" stroke-width="0.8" stroke-dasharray="4,3">
<line x1="140" y1="20" x2="220" y2="100"/>
<line x1="220" y1="20" x2="140" y2="100"/>
<line x1="140" y1="380" x2="220" y2="300"/>
<line x1="220" y1="380" x2="140" y2="300"/>
</g>
<circle cx="20" cy="20" r="17" fill="#fda" stroke="#000" stroke-width="2"/><circle cx="20" cy="20" r="14" fill="none" stroke="#c00" stroke-width="1.5"/><text x="20" y="24" text-anchor="middle" font-size="12" font-family="serif" fill="#c00" font-weight="bold">&#x8ECA;</text>
<circle cx="60" cy="20" r="17" fill="#fda" stroke="#000" stroke-width="2"/><circle cx="60" cy="20" r="14" fill="none" stroke="#c00" stroke-width="1.5"/><text x="60" y="24" text-anchor="middle" font-size="12" font-family="serif" fill="#c00" font-weight="bold">&#x99AC;</text>
<circle cx="100" cy="20" r="17" fill="#fda" stroke="#000" stroke-width="2"/><circle cx="100" cy="20" r="14" fill="none" stroke="#c00" stroke-width="1.5"/><text x="100" y="24" text-anchor="middle" font-size="12" font-family="serif" fill="#c00" font-weight="bold">&#x8C61;</text>
<circle cx="140" cy="20" r="17" fill="#fda" stroke="#000" stroke-width="2"/><circle cx="140" cy="20" r="14" fill="none" stroke="#c00" stroke-width="1.5"/><text x="140" y="24" text-anchor="middle" font-size="12" font-family="serif" fill="#c00" font-weight="bold">&#x58EB;</text>
<circle cx="180" cy="20" r="17" fill="#fda" stroke="#000" stroke-width="2"/><circle cx="180" cy="20" r="14" fill="none" stroke="#c00" stroke-width="1.5"/><text x="180" y="24" text-anchor="middle" font-size="12" font-family="serif" fill="#c00" font-weight="bold">&#x5C07;</text>
<circle cx="220" cy="20" r="17" fill="#fda" stroke="#000" stroke-width="2"/><circle cx="220" cy="20" r="14" fill="none" stroke="#c00" stroke-width="1.5"/><text x="220" y="24" text-anchor="middle" font-size="12" font-family="serif" fill="#c00" font-weight="bold">&#x58EB;</text>
<circle cx="260" cy="20" r="17" fill="#fda" stroke="#000" stroke-width="2"/><circle cx="260" cy="20" r="14" fill="none" stroke="#c00" stroke-width="1.5"/><text x="260" y="24" text-anchor="middle" font-size="12" font-family="serif" fill="#c00" font-weight="bold">&#x8C61;</text>
<circle cx="300" cy="20" r="17" fill="#fda" stroke="#000" stroke-width="2"/><circle cx="300" cy="20" r="14" fill="none" stroke="#c00" stroke-width="1.5"/><text x="300" y="24" text-anchor="middle" font-size="12" font-family="serif" fill="#c00" font-weight="bold">&#x99AC;</text>
<circle cx="340" cy="20" r="17" fill="#fda" stroke="#000" stroke-width="2"/><circle cx="340" cy="20" r="14" fill="none" stroke="#c00" stroke-width="1.5"/><text x="340" y="24" text-anchor="middle" font-size="12" font-family="serif" fill="#c00" font-weight="bold">&#x8ECA;</text>
<circle cx="60" cy="60" r="17" fill="#fda" stroke="#000" stroke-width="2"/><circle cx="60" cy="60" r="14" fill="none" stroke="#c00" stroke-width="1.5"/><text x="60" y="64" text-anchor="middle" font-size="12" font-family="serif" fill="#c00" font-weight="bold">&#x7832;</text>
<circle cx="300" cy="60" r="17" fill="#fda" stroke="#000" stroke-width="2"/><circle cx="300" cy="60" r="14" fill="none" stroke="#c00" stroke-width="1.5"/><text x="300" y="64" text-anchor="middle" font-size="12" font-family="serif" fill="#c00" font-weight="bold">&#x7832;</text>
<circle cx="20" cy="100" r="14" fill="#fda" stroke="#000" stroke-width="1.5"/><circle cx="20" cy="100" r="11" fill="none" stroke="#c00" stroke-width="1"/><text x="20" y="104" text-anchor="middle" font-size="10" font-family="serif" fill="#c00" font-weight="bold">&#x5352;</text>
<circle cx="100" cy="100" r="14" fill="#fda" stroke="#000" stroke-width="1.5"/><circle cx="100" cy="100" r="11" fill="none" stroke="#c00" stroke-width="1"/><text x="100" y="104" text-anchor="middle" font-size="10" font-family="serif" fill="#c00" font-weight="bold">&#x5352;</text>
<circle cx="180" cy="100" r="14" fill="#fda" stroke="#000" stroke-width="1.5"/><circle cx="180" cy="100" r="11" fill="none" stroke="#c00" stroke-width="1"/><text x="180" y="104" text-anchor="middle" font-size="10" font-family="serif" fill="#c00" font-weight="bold">&#x5352;</text>
<circle cx="260" cy="100" r="14" fill="#fda" stroke="#000" stroke-width="1.5"/><circle cx="260" cy="100" r="11" fill="none" stroke="#c00" stroke-width="1"/><text x="260" y="104" text-anchor="middle" font-size="10" font-family="serif" fill="#c00" font-weight="bold">&#x5352;</text>
<circle cx="340" cy="100" r="14" fill="#fda" stroke="#000" stroke-width="1.5"/><circle cx="340" cy="100" r="11" fill="none" stroke="#c00" stroke-width="1"/><text x="340" y="104" text-anchor="middle" font-size="10" font-family="serif" fill="#c00" font-weight="bold">&#x5352;</text>
<circle cx="20" cy="300" r="14" fill="#fda" stroke="#000" stroke-width="1.5"/><circle cx="20" cy="300" r="11" fill="none" stroke="#000" stroke-width="1"/><text x="20" y="304" text-anchor="middle" font-size="10" font-family="serif" fill="#000" font-weight="bold">&#x5175;</text>
<circle cx="100" cy="300" r="14" fill="#fda" stroke="#000" stroke-width="1.5"/><circle cx="100" cy="300" r="11" fill="none" stroke="#000" stroke-width="1"/><text x="100" y="304" text-anchor="middle" font-size="10" font-family="serif" fill="#000" font-weight="bold">&#x5175;</text>
<circle cx="180" cy="300" r="14" fill="#fda" stroke="#000" stroke-width="1.5"/><circle cx="180" cy="300" r="11" fill="none" stroke="#000" stroke-width="1"/><text x="180" y="304" text-anchor="middle" font-size="10" font-family="serif" fill="#000" font-weight="bold">&#x5175;</text>
<circle cx="260" cy="300" r="14" fill="#fda" stroke="#000" stroke-width="1.5"/><circle cx="260" cy="300" r="11" fill="none" stroke="#000" stroke-width="1"/><text x="260" y="304" text-anchor="middle" font-size="10" font-family="serif" fill="#000" font-weight="bold">&#x5175;</text>
<circle cx="340" cy="300" r="14" fill="#fda" stroke="#000" stroke-width="1.5"/><circle cx="340" cy="300" r="11" fill="none" stroke="#000" stroke-width="1"/><text x="340" y="304" text-anchor="middle" font-size="10" font-family="serif" fill="#000" font-weight="bold">&#x5175;</text>
<circle cx="60" cy="340" r="17" fill="#fda" stroke="#000" stroke-width="2"/><circle cx="60" cy="340" r="14" fill="none" stroke="#000" stroke-width="1.5"/><text x="60" y="344" text-anchor="middle" font-size="12" font-family="serif" fill="#000" font-weight="bold">&#x7832;</text>
<circle cx="300" cy="340" r="17" fill="#fda" stroke="#000" stroke-width="2"/><circle cx="300" cy="340" r="14" fill="none" stroke="#000" stroke-width="1.5"/><text x="300" y="344" text-anchor="middle" font-size="12" font-family="serif" fill="#000" font-weight="bold">&#x7832;</text>
<circle cx="20" cy="380" r="17" fill="#fda" stroke="#000" stroke-width="2"/><circle cx="20" cy="380" r="14" fill="none" stroke="#000" stroke-width="1.5"/><text x="20" y="384" text-anchor="middle" font-size="12" font-family="serif" fill="#000" font-weight="bold">&#x8ECA;</text>
<circle cx="60" cy="380" r="17" fill="#fda" stroke="#000" stroke-width="2"/><circle cx="60" cy="380" r="14" fill="none" stroke="#000" stroke-width="1.5"/><text x="60" y="384" text-anchor="middle" font-size="12" font-family="serif" fill="#000" font-weight="bold">&#x99AC;</text>
<circle cx="100" cy="380" r="17" fill="#fda" stroke="#000" stroke-width="2"/><circle cx="100" cy="380" r="14" fill="none" stroke="#000" stroke-width="1.5"/><text x="100" y="384" text-anchor="middle" font-size="12" font-family="serif" fill="#000" font-weight="bold">&#x8C61;</text>
<circle cx="140" cy="380" r="17" fill="#fda" stroke="#000" stroke-width="2"/><circle cx="140" cy="380" r="14" fill="none" stroke="#000" stroke-width="1.5"/><text x="140" y="384" text-anchor="middle" font-size="12" font-family="serif" fill="#000" font-weight="bold">&#x58EB;</text>
<circle cx="180" cy="380" r="17" fill="#fda" stroke="#000" stroke-width="2"/><circle cx="180" cy="380" r="14" fill="none" stroke="#000" stroke-width="1.5"/><text x="180" y="384" text-anchor="middle" font-size="12" font-family="serif" fill="#000" font-weight="bold">&#x5C07;</text>
<circle cx="220" cy="380" r="17" fill="#fda" stroke="#000" stroke-width="2"/><circle cx="220" cy="380" r="14" fill="none" stroke="#000" stroke-width="1.5"/><text x="220" y="384" text-anchor="middle" font-size="12" font-family="serif" fill="#000" font-weight="bold">&#x58EB;</text>
<circle cx="260" cy="380" r="17" fill="#fda" stroke="#000" stroke-width="2"/><circle cx="260" cy="380" r="14" fill="none" stroke="#000" stroke-width="1.5"/><text x="260" y="384" text-anchor="middle" font-size="12" font-family="serif" fill="#000" font-weight="bold">&#x8C61;</text>
<circle cx="300" cy="380" r="17" fill="#fda" stroke="#000" stroke-width="2"/><circle cx="300" cy="380" r="14" fill="none" stroke="#000" stroke-width="1.5"/><text x="300" y="384" text-anchor="middle" font-size="12" font-family="serif" fill="#000" font-weight="bold">&#x99AC;</text>
<circle cx="340" cy="380" r="17" fill="#fda" stroke="#000" stroke-width="2"/><circle cx="340" cy="380" r="14" fill="none" stroke="#000" stroke-width="1.5"/><text x="340" y="384" text-anchor="middle" font-size="12" font-family="serif" fill="#000" font-weight="bold">&#x8ECA;</text>
</svg>
