<svg xmlns="http://www.w3.org/2000/svg" viewBox="0 0 560 582" width="560" height="582">
  <title>Standard Shogi — starting position</title>
  <rect width="560" height="582" fill="#c8912e"/>
  <rect x="55" y="57" width="450" height="450" fill="#e8c97a" stroke="#5c3d11" stroke-width="2"/>
  <rect x="55" y="57" width="450" height="150" fill="#e6b800" fill-opacity="0.2"/>
  <rect x="55" y="357" width="450" height="150" fill="#e6b800" fill-opacity="0.2"/>
  <g stroke="#5c3d11" stroke-width="1">
    <line x1="55" y1="107" x2="505" y2="107"/>
    <line x1="55" y1="157" x2="505" y2="157"/>
    <line x1="55" y1="257" x2="505" y2="257"/>
    <line x1="55" y1="307" x2="505" y2="307"/>
    <line x1="55" y1="407" x2="505" y2="407"/>
    <line x1="55" y1="457" x2="505" y2="457"/>
    <line x1="105" y1="57" x2="105" y2="507"/>
    <line x1="155" y1="57" x2="155" y2="507"/>
    <line x1="205" y1="57" x2="205" y2="507"/>
    <line x1="255" y1="57" x2="255" y2="507"/>
    <line x1="305" y1="57" x2="305" y2="507"/>
    <line x1="355" y1="57" x2="355" y2="507"/>
    <line x1="405" y1="57" x2="405" y2="507"/>
    <line x1="455" y1="57" x2="455" y2="507"/>
  </g>
  <g stroke="#5c3d11" stroke-width="2">
    <line x1="55" y1="207" x2="505" y2="207"/>
    <line x1="55" y1="357" x2="505" y2="357"/>
  </g>
  <circle cx="205" cy="207" r="3" fill="#3d2b1f"/>
  <circle cx="355" cy="207" r="3" fill="#3d2b1f"/>
  <circle cx="205" cy="357" r="3" fill="#3d2b1f"/>
  <circle cx="355" cy="357" r="3" fill="#3d2b1f"/>
  <polygon points="64,64 96,64 96,77 80,100 64,77" fill="#f0e6d0" stroke="#5c3d11" stroke-width="1"/>
  <text x="80" y="70" text-anchor="middle" dominant-baseline="middle" font-family="serif" font-size="14" fill="#5c3d11">L</text>
  <polygon points="114,64 146,64 146,77 130,100 114,77" fill="#f0e6d0" stroke="#5c3d11" stroke-width="1"/>
  <text x="130" y="70" text-anchor="middle" dominant-baseline="middle" font-family="serif" font-size="14" fill="#5c3d11">N</text>
  <polygon points="164,64 196,64 196,77 180,100 164,77" fill="#f0e6d0" stroke="#5c3d11" stroke-width="1"/>
  <text x="180" y="70" text-anchor="middle" dominant-baseline="middle" font-family="serif" font-size="14" fill="#5c3d11">S</text>
  <polygon points="214,64 246,64 246,77 230,100 214,77" fill="#f0e6d0" stroke="#5c3d11" stroke-width="1"/>
  <text x="230" y="70" text-anchor="middle" dominant-baseline="middle" font-family="serif" font-size="14" fill="#5c3d11">G</text>
  <polygon points="264,64 296,64 296,77 280,100 264,77" fill="#f0e6d0" stroke="#5c3d11" stroke-width="1"/>
  <text x="280" y="70" text-anchor="middle" dominant-baseline="middle" font-family="serif" font-size="14" fill="#5c3d11">K</text>
  <polygon points="314,64 346,64 346,77 330,100 314,77" fill="#f0e6d0" stroke="#5c3d11" stroke-width="1"/>
  <text x="330" y="70" text-anchor="middle" dominant-baseline="middle" font-family="serif" font-size="14" fill="#5c3d11">G</text>
  <polygon points="364,64 396,64 396,77 380,100 364,77" fill="#f0e6d0" stroke="#5c3d11" stroke-width="1"/>
  <text x="380" y="70" text-anchor="middle" dominant-baseline="middle" font-family="serif" font-size="14" fill="#5c3d11">S</text>
  <polygon points="414,64 446,64 446,77 430,100 414,77" fill="#f0e6d0" stroke="#5c3d11" stroke-width="1"/>
  <text x="430" y="70" text-anchor="middle" dominant-baseline="middle" font-family="serif" font-size="14" fill="#5c3d11">N</text>
  <polygon points="464,64 496,64 496,77 480,100 464,77" fill="#f0e6d0" stroke="#5c3d11" stroke-width="1"/>
  <text x="480" y="70" text-anchor="middle" dominant-baseline="middle" font-family="serif" font-size="14" fill="#5c3d11">L</text>
  <polygon points="114,114 146,114 146,127 130,150 114,127" fill="#f0e6d0" stroke="#5c3d11" stroke-width="1"/>
  <text x="130" y="120" text-anchor="middle" dominant-baseline="middle" font-family="serif" font-size="14" fill="#5c3d11">R</text>
  <polygon points="414,114 446,114 446,127 430,150 414,127" fill="#f0e6d0" stroke="#5c3d11" stroke-width="1"/>
  <text x="430" y="120" text-anchor="middle" dominant-baseline="middle" font-family="serif" font-size="14" fill="#5c3d11">B</text>
  <polygon points="64,164 96,164 96,177 80,200 64,177" fill="#f0e6d0" stroke="#5c3d11" stroke-width="1"/>
  <text x="80" y="170" text-anchor="middle" dominant-baseline="middle" font-family="serif" font-size="14" fill="#5c3d11">P</text>
  <polygon points="114,164 146,164 146,177 130,200 114,177" fill="#f0e6d0" stroke="#5c3d11" stroke-width="1"/>
  <text x="130" y="170" text-anchor="middle" dominant-baseline="middle" font-family="serif" font-size="14" fill="#5c3d11">P</text>
  <polygon points="164,164 196,164 196,177 180,200 164,177" fill="#f0e6d0" stroke="#5c3d11" stroke-width="1"/>
  <text x="180" y="170" text-anchor="middle" dominant-baseline="middle" font-family="serif" font-size="14" fill="#5c3d11">P</text>
  <polygon points="214,164 246,164 246,177 230,200 214,177" fill="#f0e6d0" stroke="#5c3d11" stroke-width="1"/>
  <text x="230" y="170" text-anchor="middle" dominant-baseline="middle" font-family="serif" font-size="14" fill="#5c3d11">P</text>
  <polygon points="264,164 296,164 296,177 280,200 264,177" fill="#f0e6d0" stroke="#5c3d11" stroke-width="1"/>
  <text x="280" y="170" text-anchor="middle" dominant-baseline="middle" font-family="serif" font-size="14" fill="#5c3d11">P</text>
  <polygon points="314,164 346,164 346,177 330,200 314,177" fill="#f0e6d0" stroke="#5c3d11" stroke-width="1"/>
  <text x="330" y="170" text-anchor="middle" dominant-baseline="middle" font-family="serif" font-size="14" fill="#5c3d11">P</text>
  <polygon points="364,164 396,164 396,177 380,200 364,177" fill="#f0e6d0" stroke="#5c3d11" stroke-width="1"/>
  <text x="380" y="170" text-anchor="middle" dominant-baseline="middle" font-family="serif" font-size="14" fill="#5c3d11">P</text>
  <polygon points="414,164 446,164 446,177 430,200 414,177" fill="#f0e6d0" stroke="#5c3d11" stroke-width="1"/>
  <text x="430" y="170" text-anchor="middle" dominant-baseline="middle" font-family="serif" font-size="14" fill="#5c3d11">P</text>
  <polygon points="464,164 496,164 496,177 480,200 464,177" fill="#f0e6d0" stroke="#5c3d11" stroke-width="1"/>
  <text x="480" y="170" text-anchor="middle" dominant-baseline="middle" font-family="serif" font-size="14" fill="#5c3d11">P</text>
  <polygon points="64,400 96,400 96,387 80,364 64,387" fill="#2c1810" stroke="#8b5e3c" stroke-width="1"/>
  <text x="80" y="394" text-anchor="middle" dominant-baseline="middle" font-family="serif" font-size="14" fill="#f0e6d0">P</text>
  <polygon points="114,400 146,400 146,387 130,364 114,387" fill="#2c1810" stroke="#8b5e3c" stroke-width="1"/>
  <text x="130" y="394" text-anchor="middle" dominant-baseline="middle" font-family="serif" font-size="14" fill="#f0e6d0">P</text>
  <polygon points="164,400 196,400 196,387 180,364 164,387" fill="#2c1810" stroke="#8b5e3c" stroke-width="1"/>
  <text x="180" y="394" text-anchor="middle" dominant-baseline="middle" font-family="serif" font-size="14" fill="#f0e6d0">P</text>
  <polygon points="214,400 246,400 246,387 230,364 214,387" fill="#2c1810" stroke="#8b5e3c" stroke-width="1"/>
  <text x="230" y="394" text-anchor="middle" dominant-baseline="middle" font-family="serif" font-size="14" fill="#f0e6d0">P</text>
  <polygon points="264,400 296,400 296,387 280,364 264,387" fill="#2c1810" stroke="#8b5e3c" stroke-width="1"/>
  <text x="280" y="394" text-anchor="middle" dominant-baseline="middle" font-family="serif" font-size="14" fill="#f0e6d0">P</text>
  <polygon points="314,400 346,400 346,387 330,364 314,387" fill="#2c1810" stroke="#8b5e3c" stroke-width="1"/>
  <text x="330" y="394" text-anchor="middle" dominant-baseline="middle" font-family="serif" font-size="14" fill="#f0e6d0">P</text>
  <polygon points="364,400 396,400 396,387 380,364 364,387" fill="#2c1810" stroke="#8b5e3c" stroke-width="1"/>
  <text x="380" y="394" text-anchor="middle" dominant-baseline="middle" font-family="serif" font-size="14" fill="#f0e6d0">P</text>
  <polygon points="414,400 446,400 446,387 430,364 414,387" fill="#2c1810" stroke="#8b5e3c" stroke-width="1"/>
  <text x="430" y="394" text-anchor="middle" dominant-baseline="middle" font-family="serif" font-size="14" fill="#f0e6d0">P</text>
  <polygon points="464,400 496,400 496,387 480,364 464,387" fill="#2c1810" stroke="#8b5e3c" stroke-width="1"/>
  <text x="480" y="394" text-anchor="middle" dominant-baseline="middle" font-family="serif" font-size="14" fill="#f0e6d0">P</text>
  <polygon points="114,450 146,450 146,437 130,414 114,437" fill="#2c1810" stroke="#8b5e3c" stroke-width="1"/>
  <text x="130" y="444" text-anchor="middle" dominant-baseline="middle" font-family="serif" font-size="14" fill="#f0e6d0">B</text>
  <polygon points="414,450 446,450 446,437 430,414 414,437" fill="#2c1810" stroke="#8b5e3c" stroke-width="1"/>
  <text x="430" y="444" text-anchor="middle" dominant-baseline="middle" font-family="serif" font-size="14" fill="#f0e6d0">R</text>
  <polygon points="64,500 96,500 96,487 80,464 64,487" fill="#2c1810" stroke="#8b5e3c" stroke-width="1"/>
  <text x="80" y="494" text-anchor="middle" dominant-baseline="middle" font-family="serif" font-size="14" fill="#f0e6d0">L</text>
  <polygon points="114,500 146,500 146,487 130,464 114,487" fill="#2c1810" stroke="#8b5e3c" stroke-width="1"/>
  <text x="130" y="494" text-anchor="middle" dominant-baseline="middle" font-family="serif" font-size="14" fill="#f0e6d0">N</text>
  <polygon points="164,500 196,500 196,487 180,464 164,487" fill="#2c1810" stroke="#8b5e3c" stroke-width="1"/>
  <text x="180" y="494" text-anchor="middle" dominant-baseline="middle" font-family="serif" font-size="14" fill="#f0e6d0">S</text>
  <polygon points="214,500 246,500 246,487 230,464 214,487" fill="#2c1810" stroke="#8b5e3c" stroke-width="1"/>
  <text x="230" y="494" text-anchor="middle" dominant-baseline="middle" font-family="serif" font-size="14" fill="#f0e6d0">G</text>
  <polygon points="264,500 296,500 296,487 280,464 264,487" fill="#2c1810" stroke="#8b5e3c" stroke-width="1"/>
  <text x="280" y="494" text-anchor="middle" dominant-baseline="middle" font-family="serif" font-size="14" fill="#f0e6d0">K</text>
  <polygon points="314,500 346,500 346,487 330,464 314,487" fill="#2c1810" stroke="#8b5e3c" stroke-width="1"/>
  <text x="330" y="494" text-anchor="middle" dominant-baseline="middle" font-family="serif" font-size="14" fill="#f0e6d0">G</text>
  <polygon points="364,500 396,500 396,487 380,464 364,487" fill="#2c1810" stroke="#8b5e3c" stroke-width="1"/>
  <text x="380" y="494" text-anchor="middle" dominant-baseline="middle" font-family="serif" font-size="14" fill="#f0e6d0">S</text>
  <polygon points="414,500 446,500 446,487 430,464 414,487" fill="#2c1810" stroke="#8b5e3c" stroke-width="1"/>
  <text x="430" y="494" text-anchor="middle" dominant-baseline="middle" font-family="serif" font-size="14" fill="#f0e6d0">N</text>
  <polygon points="464,500 496,500 496,487 480,464 464,487" fill="#2c1810" stroke="#8b5e3c" stroke-width="1"/>
  <text x="480" y="494" text-anchor="middle" dominant-baseline="middle" font-family="serif" font-size="14" fill="#f0e6d0">L</text>
</svg>
