<svg xmlns="http://www.w3.org/2000/svg" viewBox="0 0 252 324" width="252" height="324">
<defs>
<symbol id="piece-mce-shogi-fairy-bY" viewBox="0 0 45 45"><polygon points="22.5,43 3,29 7,2 38,2 42,29" fill="#f5deb3" stroke="#8b4513" stroke-width="1.5"/><text x="22.5" y="28" text-anchor="middle" font-size="18" font-family="serif" fill="#1a1a1a">槍</text></symbol>
<symbol id="piece-mce-shogi-fairy-bN" viewBox="0 0 45 45"><polygon points="22.5,43 3,29 7,2 38,2 42,29" fill="#f5deb3" stroke="#8b4513" stroke-width="1.5"/><text x="22.5" y="28" text-anchor="middle" font-size="18" font-family="serif" fill="#1a1a1a">桂</text></symbol>
<symbol id="piece-mce-shogi-fairy-bK" viewBox="0 0 45 45"><polygon points="22.5,43 3,29 7,2 38,2 42,29" fill="#f5deb3" stroke="#8b4513" stroke-width="1.5"/><text x="22.5" y="28" text-anchor="middle" font-size="18" font-family="serif" fill="#1a1a1a">王</text></symbol>
<symbol id="piece-mce-shogi-fairy-bB" viewBox="0 0 45 45"><polygon points="22.5,43 3,29 7,2 38,2 42,29" fill="#f5deb3" stroke="#8b4513" stroke-width="1.5"/><text x="22.5" y="28" text-anchor="middle" font-size="18" font-family="serif" fill="#1a1a1a">角</text></symbol>
<symbol id="piece-mce-shogi-fairy-bP" viewBox="0 0 45 45"><polygon points="22.5,43 3,29 7,2 38,2 42,29" fill="#f5deb3" stroke="#8b4513" stroke-width="1.5"/><text x="22.5" y="28" text-anchor="middle" font-size="18" font-family="serif" fill="#1a1a1a">歩</text></symbol>
<symbol id="piece-mce-shogi-fairy-wP" viewBox="0 0 45 45"><polygon points="22.5,2 42,16 38,43 7,43 3,16" fill="#f5deb3" stroke="#8b4513" stroke-width="1.5"/><text x="22.5" y="30" text-anchor="middle" font-size="18" font-family="serif" fill="#1a1a1a">歩</text></symbol>
<symbol id="piece-mce-shogi-fairy-wY" viewBox="0 0 45 45"><polygon points="22.5,2 42,16 38,43 7,43 3,16" fill="#f5deb3" stroke="#8b4513" stroke-width="1.5"/><text x="22.5" y="30" text-anchor="middle" font-size="18" font-family="serif" fill="#1a1a1a">槍</text></symbol>
<symbol id="piece-mce-shogi-fairy-wB" viewBox="0 0 45 45"><polygon points="22.5,2 42,16 38,43 7,43 3,16" fill="#f5deb3" stroke="#8b4513" stroke-width="1.5"/><text x="22.5" y="30" text-anchor="middle" font-size="18" font-family="serif" fill="#1a1a1a">角</text></symbol>
<symbol id="piece-mce-shogi-fairy-wK" viewBox="0 0 45 45"><polygon points="22.5,2 42,16 38,43 7,43 3,16" fill="#f5deb3" stroke="#8b4513" stroke-width="1.5"/><text x="22.5" y="30" text-anchor="middle" font-size="18" font-family="serif" fill="#1a1a1a">王</text></symbol>
<symbol id="piece-mce-shogi-fairy-wN" viewBox="0 0 45 45"><polygon points="22.5,2 42,16 38,43 7,43 3,16" fill="#f5deb3" stroke="#8b4513" stroke-width="1.5"/><text x="22.5" y="30" text-anchor="middle" font-size="18" font-family="serif" fill="#1a1a1a">桂</text></symbol>
</defs>

<rect x="0" y="0" width="36" height="36" fill="#e8c97a" data-sq="a9" class="board-cell" pointer-events="all"/><rect x="36" y="0" width="36" height="36" fill="#e8c97a" data-sq="b9" class="board-cell" pointer-events="all"/><rect x="72" y="0" width="36" height="36" fill="#e8c97a" data-sq="c9" class="board-cell" pointer-events="all"/><rect x="108" y="0" width="36" height="36" fill="#e8c97a" data-sq="d9" class="board-cell" pointer-events="all"/><rect x="144" y="0" width="36" height="36" fill="#e8c97a" data-sq="e9" class="board-cell" pointer-events="all"/><rect x="180" y="0" width="36" height="36" fill="#e8c97a" data-sq="f9" class="board-cell" pointer-events="all"/><rect x="216" y="0" width="36" height="36" fill="#e8c97a" data-sq="g9" class="board-cell" pointer-events="all"/><rect x="0" y="36" width="36" height="36" fill="#e8c97a" data-sq="a8" class="board-cell" pointer-events="all"/><rect x="36" y="36" width="36" height="36" fill="#e8c97a" data-sq="b8" class="board-cell" pointer-events="all"/><rect x="72" y="36" width="36" height="36" fill="#e8c97a" data-sq="c8" class="board-cell" pointer-events="all"/><rect x="108" y="36" width="36" height="36" fill="#e8c97a" data-sq="d8" class="board-cell" pointer-events="all"/><rect x="144" y="36" width="36" height="36" fill="#e8c97a" data-sq="e8" class="board-cell" pointer-events="all"/><rect x="180" y="36" width="36" height="36" fill="#e8c97a" data-sq="f8" class="board-cell" pointer-events="all"/><rect x="216" y="36" width="36" height="36" fill="#e8c97a" data-sq="g8" class="board-cell" pointer-events="all"/><rect x="0" y="72" width="36" height="36" fill="#e8c97a" data-sq="a7" class="board-cell" pointer-events="all"/><rect x="36" y="72" width="36" height="36" fill="#e8c97a" data-sq="b7" class="board-cell" pointer-events="all"/><rect x="72" y="72" width="36" height="36" fill="#e8c97a" data-sq="c7" class="board-cell" pointer-events="all"/><rect x="108" y="72" width="36" height="36" fill="#e8c97a" data-sq="d7" class="board-cell" pointer-events="all"/><rect x="144" y="72" width="36" height="36" fill="#e8c97a" data-sq="e7" class="board-cell" pointer-events="all"/><rect x="180" y="72" width="36" height="36" fill="#e8c97a" data-sq="f7" class="board-cell" pointer-events="all"/><rect x="216" y="72" width="36" height="36" fill="#e8c97a" data-sq="g7" class="board-cell" pointer-events="all"/><rect x="0" y="108" width="36" height="36" fill="#e8c97a" data-sq="a6" class="board-cell" pointer-events="all"/><rect x="36" y="108" width="36" height="36" fill="#e8c97a" data-sq="b6" class="board-cell" pointer-events="all"/><rect x="72" y="108" width="36" height="36" fill="#e8c97a" data-sq="c6" class="board-cell" pointer-events="all"/><rect x="108" y="108" width="36" height="36" fill="#e8c97a" data-sq="d6" class="board-cell" pointer-events="all"/><rect x="144" y="108" width="36" height="36" fill="#e8c97a" data-sq="e6" class="board-cell" pointer-events="all"/><rect x="180" y="108" width="36" height="36" fill="#e8c97a" data-sq="f6" class="board-cell" pointer-events="all"/><rect x="216" y="108" width="36" height="36" fill="#e8c97a" data-sq="g6" class="board-cell" pointer-events="all"/><rect x="0" y="144" width="36" height="36" fill="#e8c97a" data-sq="a5" class="board-cell" pointer-events="all"/><rect x="36" y="144" width="36" height="36" fill="#e8c97a" data-sq="b5" class="board-cell" pointer-events="all"/><rect x="72" y="144" width="36" height="36" fill="#e8c97a" data-sq="c5" class="board-cell" pointer-events="all"/><rect x="108" y="144" width="36" height="36" fill="#e8c97a" data-sq="d5" class="board-cell" pointer-events="all"/><rect x="144" y="144" width="36" height="36" fill="#e8c97a" data-sq="e5" class="board-cell" pointer-events="all"/><rect x="180" y="144" width="36" height="36" fill="#e8c97a" data-sq="f5" class="board-cell" pointer-events="all"/><rect x="216" y="144" width="36" height="36" fill="#e8c97a" data-sq="g5" class="board-cell" pointer-events="all"/><rect x="0" y="180" width="36" height="36" fill="#e8c97a" data-sq="a4" class="board-cell" pointer-events="all"/><rect x="36" y="180" width="36" height="36" fill="#e8c97a" data-sq="b4" class="board-cell" pointer-events="all"/><rect x="72" y="180" width="36" height="36" fill="#e8c97a" data-sq="c4" class="board-cell" pointer-events="all"/><rect x="108" y="180" width="36" height="36" fill="#e8c97a" data-sq="d4" class="board-cell" pointer-events="all"/><rect x="144" y="180" width="36" height="36" fill="#e8c97a" data-sq="e4" class="board-cell" pointer-events="all"/><rect x="180" y="180" width="36" height="36" fill="#e8c97a" data-sq="f4" class="board-cell" pointer-events="all"/><rect x="216" y="180" width="36" height="36" fill="#e8c97a" data-sq="g4" class="board-cell" pointer-events="all"/><rect x="0" y="216" width="36" height="36" fill="#e8c97a" data-sq="a3" class="board-cell" pointer-events="all"/><rect x="36" y="216" width="36" height="36" fill="#e8c97a" data-sq="b3" class="board-cell" pointer-events="all"/><rect x="72" y="216" width="36" height="36" fill="#e8c97a" data-sq="c3" class="board-cell" pointer-events="all"/><rect x="108" y="216" width="36" height="36" fill="#e8c97a" data-sq="d3" class="board-cell" pointer-events="all"/><rect x="144" y="216" width="36" height="36" fill="#e8c97a" data-sq="e3" class="board-cell" pointer-events="all"/><rect x="180" y="216" width="36" height="36" fill="#e8c97a" data-sq="f3" class="board-cell" pointer-events="all"/><rect x="216" y="216" width="36" height="36" fill="#e8c97a" data-sq="g3" class="board-cell" pointer-events="all"/><rect x="0" y="252" width="36" height="36" fill="#e8c97a" data-sq="a2" class="board-cell" pointer-events="all"/><rect x="36" y="252" width="36" height="36" fill="#e8c97a" data-sq="b2" class="board-cell" pointer-events="all"/><rect x="72" y="252" width="36" height="36" fill="#e8c97a" data-sq="c2" class="board-cell" pointer-events="all"/><rect x="108" y="252" width="36" height="36" fill="#e8c97a" data-sq="d2" class="board-cell" pointer-events="all"/><rect x="144" y="252" width="36" height="36" fill="#e8c97a" data-sq="e2" class="board-cell" pointer-events="all"/><rect x="180" y="252" width="36" height="36" fill="#e8c97a" data-sq="f2" class="board-cell" pointer-events="all"/><rect x="216" y="252" width="36" height="36" fill="#e8c97a" data-sq="g2" class="board-cell" pointer-events="all"/><rect x="0" y="288" width="36" height="36" fill="#e8c97a" data-sq="a1" class="board-cell" pointer-events="all"/><rect x="36" y="288" width="36" height="36" fill="#e8c97a" data-sq="b1" class="board-cell" pointer-events="all"/><rect x="72" y="288" width="36" height="36" fill="#e8c97a" data-sq="c1" class="board-cell" pointer-events="all"/><rect x="108" y="288" width="36" height="36" fill="#e8c97a" data-sq="d1" class="board-cell" pointer-events="all"/><rect x="144" y="288" width="36" height="36" fill="#e8c97a" data-sq="e1" class="board-cell" pointer-events="all"/><rect x="180" y="288" width="36" height="36" fill="#e8c97a" data-sq="f1" class="board-cell" pointer-events="all"/><rect x="216" y="288" width="36" height="36" fill="#e8c97a" data-sq="g1" class="board-cell" pointer-events="all"/><line x1="0" y1="0" x2="252" y2="0" pointer-events="none" stroke="#6b4e1a" stroke-width="2"/><line x1="0" y1="36" x2="252" y2="36" pointer-events="none" stroke="#6b4e1a" stroke-width="2"/><line x1="0" y1="72" x2="252" y2="72" pointer-events="none" stroke="#6b4e1a" stroke-width="2"/><line x1="0" y1="108" x2="252" y2="108" pointer-events="none" stroke="#6b4e1a" stroke-width="2"/><line x1="0" y1="144" x2="252" y2="144" pointer-events="none" stroke="#6b4e1a" stroke-width="2"/><line x1="0" y1="180" x2="252" y2="180" pointer-events="none" stroke="#6b4e1a" stroke-width="2"/><line x1="0" y1="216" x2="252" y2="216" pointer-events="none" stroke="#6b4e1a" stroke-width="2"/><line x1="0" y1="252" x2="252" y2="252" pointer-events="none" stroke="#6b4e1a" stroke-width="2"/><line x1="0" y1="288" x2="252" y2="288" pointer-events="none" stroke="#6b4e1a" stroke-width="2"/><line x1="0" y1="324" x2="252" y2="324" pointer-events="none" stroke="#6b4e1a" stroke-width="2"/><line x1="0" y1="0" x2="0" y2="324" pointer-events="none" stroke="#6b4e1a" stroke-width="2"/><line x1="36" y1="0" x2="36" y2="324" pointer-events="none" stroke="#6b4e1a" stroke-width="2"/><line x1="72" y1="0" x2="72" y2="324" pointer-events="none" stroke="#6b4e1a" stroke-width="2"/><line x1="108" y1="0" x2="108" y2="324" pointer-events="none" stroke="#6b4e1a" stroke-width="2"/><line x1="144" y1="0" x2="144" y2="324" pointer-events="none" stroke="#6b4e1a" stroke-width="2"/><line x1="180" y1="0" x2="180" y2="324" pointer-events="none" stroke="#6b4e1a" stroke-width="2"/><line x1="216" y1="0" x2="216" y2="324" pointer-events="none" stroke="#6b4e1a" stroke-width="2"/><line x1="252" y1="0" x2="252" y2="324" pointer-events="none" stroke="#6b4e1a" stroke-width="2"/><rect x="0" y="0" width="36" height="36" fill="rgba(180, 60, 40, 0.08)" opacity="0.3" pointer-events="none"/><rect x="36" y="0" width="36" height="36" fill="rgba(180, 60, 40, 0.08)" opacity="0.3" pointer-events="none"/><rect x="72" y="0" width="36" height="36" fill="rgba(180, 60, 40, 0.08)" opacity="0.3" pointer-events="none"/><rect x="108" y="0" width="36" height="36" fill="rgba(180, 60, 40, 0.08)" opacity="0.3" pointer-events="none"/><rect x="144" y="0" width="36" height="36" fill="rgba(180, 60, 40, 0.08)" opacity="0.3" pointer-events="none"/><rect x="180" y="0" width="36" height="36" fill="rgba(180, 60, 40, 0.08)" opacity="0.3" pointer-events="none"/><rect x="216" y="0" width="36" height="36" fill="rgba(180, 60, 40, 0.08)" opacity="0.3" pointer-events="none"/><rect x="0" y="36" width="36" height="36" fill="rgba(180, 60, 40, 0.08)" opacity="0.3" pointer-events="none"/><rect x="36" y="36" width="36" height="36" fill="rgba(180, 60, 40, 0.08)" opacity="0.3" pointer-events="none"/><rect x="72" y="36" width="36" height="36" fill="rgba(180, 60, 40, 0.08)" opacity="0.3" pointer-events="none"/><rect x="108" y="36" width="36" height="36" fill="rgba(180, 60, 40, 0.08)" opacity="0.3" pointer-events="none"/><rect x="144" y="36" width="36" height="36" fill="rgba(180, 60, 40, 0.08)" opacity="0.3" pointer-events="none"/><rect x="180" y="36" width="36" height="36" fill="rgba(180, 60, 40, 0.08)" opacity="0.3" pointer-events="none"/><rect x="216" y="36" width="36" height="36" fill="rgba(180, 60, 40, 0.08)" opacity="0.3" pointer-events="none"/><rect x="0" y="72" width="36" height="36" fill="rgba(180, 60, 40, 0.08)" opacity="0.3" pointer-events="none"/><rect x="36" y="72" width="36" height="36" fill="rgba(180, 60, 40, 0.08)" opacity="0.3" pointer-events="none"/><rect x="72" y="72" width="36" height="36" fill="rgba(180, 60, 40, 0.08)" opacity="0.3" pointer-events="none"/><rect x="108" y="72" width="36" height="36" fill="rgba(180, 60, 40, 0.08)" opacity="0.3" pointer-events="none"/><rect x="144" y="72" width="36" height="36" fill="rgba(180, 60, 40, 0.08)" opacity="0.3" pointer-events="none"/><rect x="180" y="72" width="36" height="36" fill="rgba(180, 60, 40, 0.08)" opacity="0.3" pointer-events="none"/><rect x="216" y="72" width="36" height="36" fill="rgba(180, 60, 40, 0.08)" opacity="0.3" pointer-events="none"/><rect x="0" y="216" width="36" height="36" fill="rgba(180, 60, 40, 0.08)" opacity="0.3" pointer-events="none"/><rect x="36" y="216" width="36" height="36" fill="rgba(180, 60, 40, 0.08)" opacity="0.3" pointer-events="none"/><rect x="72" y="216" width="36" height="36" fill="rgba(180, 60, 40, 0.08)" opacity="0.3" pointer-events="none"/><rect x="108" y="216" width="36" height="36" fill="rgba(180, 60, 40, 0.08)" opacity="0.3" pointer-events="none"/><rect x="144" y="216" width="36" height="36" fill="rgba(180, 60, 40, 0.08)" opacity="0.3" pointer-events="none"/><rect x="180" y="216" width="36" height="36" fill="rgba(180, 60, 40, 0.08)" opacity="0.3" pointer-events="none"/><rect x="216" y="216" width="36" height="36" fill="rgba(180, 60, 40, 0.08)" opacity="0.3" pointer-events="none"/><rect x="0" y="252" width="36" height="36" fill="rgba(180, 60, 40, 0.08)" opacity="0.3" pointer-events="none"/><rect x="36" y="252" width="36" height="36" fill="rgba(180, 60, 40, 0.08)" opacity="0.3" pointer-events="none"/><rect x="72" y="252" width="36" height="36" fill="rgba(180, 60, 40, 0.08)" opacity="0.3" pointer-events="none"/><rect x="108" y="252" width="36" height="36" fill="rgba(180, 60, 40, 0.08)" opacity="0.3" pointer-events="none"/><rect x="144" y="252" width="36" height="36" fill="rgba(180, 60, 40, 0.08)" opacity="0.3" pointer-events="none"/><rect x="180" y="252" width="36" height="36" fill="rgba(180, 60, 40, 0.08)" opacity="0.3" pointer-events="none"/><rect x="216" y="252" width="36" height="36" fill="rgba(180, 60, 40, 0.08)" opacity="0.3" pointer-events="none"/><rect x="0" y="288" width="36" height="36" fill="rgba(180, 60, 40, 0.08)" opacity="0.3" pointer-events="none"/><rect x="36" y="288" width="36" height="36" fill="rgba(180, 60, 40, 0.08)" opacity="0.3" pointer-events="none"/><rect x="72" y="288" width="36" height="36" fill="rgba(180, 60, 40, 0.08)" opacity="0.3" pointer-events="none"/><rect x="108" y="288" width="36" height="36" fill="rgba(180, 60, 40, 0.08)" opacity="0.3" pointer-events="none"/><rect x="144" y="288" width="36" height="36" fill="rgba(180, 60, 40, 0.08)" opacity="0.3" pointer-events="none"/><rect x="180" y="288" width="36" height="36" fill="rgba(180, 60, 40, 0.08)" opacity="0.3" pointer-events="none"/><rect x="216" y="288" width="36" height="36" fill="rgba(180, 60, 40, 0.08)" opacity="0.3" pointer-events="none"/>
<g pointer-events="none"><use href="#piece-mce-shogi-fairy-bY" x="0" y="0" width="36" height="36"/><use href="#piece-mce-shogi-fairy-bN" x="36" y="0" width="36" height="36"/><use href="#piece-mce-shogi-fairy-bN" x="72" y="0" width="36" height="36"/><use href="#piece-mce-shogi-fairy-bK" x="108" y="0" width="36" height="36"/><use href="#piece-mce-shogi-fairy-bB" x="144" y="0" width="36" height="36"/><use href="#piece-mce-shogi-fairy-bB" x="180" y="0" width="36" height="36"/><use href="#piece-mce-shogi-fairy-bY" x="216" y="0" width="36" height="36"/><use href="#piece-mce-shogi-fairy-bP" x="0" y="72" width="36" height="36"/><use href="#piece-mce-shogi-fairy-bP" x="36" y="72" width="36" height="36"/><use href="#piece-mce-shogi-fairy-bP" x="72" y="72" width="36" height="36"/><use href="#piece-mce-shogi-fairy-bP" x="108" y="72" width="36" height="36"/><use href="#piece-mce-shogi-fairy-bP" x="144" y="72" width="36" height="36"/><use href="#piece-mce-shogi-fairy-bP" x="180" y="72" width="36" height="36"/><use href="#piece-mce-shogi-fairy-bP" x="216" y="72" width="36" height="36"/><use href="#piece-mce-shogi-fairy-wP" x="0" y="216" width="36" height="36"/><use href="#piece-mce-shogi-fairy-wP" x="36" y="216" width="36" height="36"/><use href="#piece-mce-shogi-fairy-wP" x="72" y="216" width="36" height="36"/><use href="#piece-mce-shogi-fairy-wP" x="108" y="216" width="36" height="36"/><use href="#piece-mce-shogi-fairy-wP" x="144" y="216" width="36" height="36"/><use href="#piece-mce-shogi-fairy-wP" x="180" y="216" width="36" height="36"/><use href="#piece-mce-shogi-fairy-wP" x="216" y="216" width="36" height="36"/><use href="#piece-mce-shogi-fairy-wY" x="0" y="288" width="36" height="36"/><use href="#piece-mce-shogi-fairy-wB" x="36" y="288" width="36" height="36"/><use href="#piece-mce-shogi-fairy-wB" x="72" y="288" width="36" height="36"/><use href="#piece-mce-shogi-fairy-wK" x="108" y="288" width="36" height="36"/><use href="#piece-mce-shogi-fairy-wN" x="144" y="288" width="36" height="36"/><use href="#piece-mce-shogi-fairy-wN" x="180" y="288" width="36" height="36"/><use href="#piece-mce-shogi-fairy-wY" x="216" y="288" width="36" height="36"/></g>
</svg>